<svg width="455" height="555" viewBox="0 0 455 555" fill="none" xmlns="http://www.w3.org/2000/svg">
<path d="M25.0215 110.326C25.0215 110.326 24.3578 88.4507 26.8143 83.5807C29.2708 78.7107 41.4541 72.8644 41.4541 72.8644C41.4541 72.8644 43.4351 92.5715 39.8495 99.0648C36.2638 105.558 25.0115 110.326 25.0115 110.326L25.0215 110.326ZM25.0215 74.238C25.0215 74.238 24.3578 52.3627 26.8143 47.4927C29.2708 42.6227 41.4541 36.7764 41.4541 36.7764C41.4541 36.7764 43.4351 56.4835 39.8495 62.9769C36.2638 69.4702 25.0115 74.238 25.0115 74.238L25.0215 74.238ZM21.1387 43.0541C16.9785 43.0541 10.1836 27.4564 10.56 23.347C10.9364 19.2376 17.7412 0.82463 21.3269 0.82463C24.9125 0.824629 31.5291 21.6101 31.5291 25.2995C31.5291 28.9775 23.9715 43.0541 21.1387 43.0541ZM16.9785 74.238C16.9785 74.238 17.6421 52.3627 15.1857 47.4927C12.7292 42.6227 0.545884 36.7764 0.545884 36.7764C0.545884 36.7764 -1.43515 56.4835 2.15051 62.9769C5.73617 69.4702 16.9884 74.238 16.9884 74.238L16.9785 74.238ZM20.9505 131.498C17.7412 131.498 19.0487 46.0396 20.9505 46.0396C22.8522 46.0396 24.3875 131.498 20.9505 131.498ZM16.9785 110.326C16.9785 110.326 17.6421 88.4507 15.1857 83.5807C12.7292 78.7107 0.545885 72.8644 0.545885 72.8644C0.545885 72.8644 -1.43515 92.5715 2.15051 99.0648C5.73618 105.558 16.9884 110.326 16.9884 110.326L16.9785 110.326Z" fill="#FFB90F"/>
<path d="M360.308 535.105C360.308 535.105 379.225 534.338 383.436 537.179C387.648 540.019 392.703 554.108 392.703 554.108C392.703 554.108 375.662 556.399 370.046 552.253C364.431 548.106 360.308 535.094 360.308 535.094V535.105ZM391.515 535.105C391.515 535.105 410.432 534.338 414.644 537.179C418.855 540.019 423.911 554.108 423.911 554.108C423.911 554.108 406.869 556.399 401.254 552.253C395.638 548.106 391.515 535.094 391.515 535.094V535.105ZM418.482 530.615C418.482 525.805 431.97 517.947 435.524 518.382C439.077 518.817 455 526.687 455 530.833C455 534.979 437.026 542.631 433.835 542.631C430.655 542.631 418.482 533.891 418.482 530.615ZM391.515 525.805C391.515 525.805 410.432 526.572 414.644 523.731C418.855 520.891 423.911 506.802 423.911 506.802C423.911 506.802 406.869 504.511 401.254 508.658C395.638 512.804 391.515 525.816 391.515 525.816V525.805ZM342 530.398C342 526.687 415.9 528.199 415.9 530.398C415.9 532.597 342 534.372 342 530.398ZM360.308 525.805C360.308 525.805 379.225 526.572 383.436 523.731C387.648 520.891 392.703 506.802 392.703 506.802C392.703 506.802 375.662 504.511 370.046 508.658C364.431 512.804 360.308 525.816 360.308 525.816V525.805Z" fill="#FFB90F"/>
</svg>
