<svg width="455" height="480" viewBox="0 0 455 480" fill="none" xmlns="http://www.w3.org/2000/svg">
<path d="M25.0215 94.924C25.0215 94.924 24.3578 76.0072 26.8143 71.7958C29.2708 67.5844 41.4541 62.5289 41.4541 62.5289C41.4541 62.5289 43.4351 79.5707 39.8495 85.1858C36.2638 90.801 25.0115 94.924 25.0115 94.924L25.0215 94.924ZM25.0215 63.7167C25.0215 63.7167 24.3578 44.8 26.8143 40.5886C29.2708 36.3772 41.4541 31.3216 41.4541 31.3216C41.4541 31.3216 43.4351 48.3635 39.8495 53.9786C36.2638 59.5938 25.0115 63.7167 25.0115 63.7167L25.0215 63.7167ZM21.1387 36.7502C16.9785 36.7502 10.1836 23.2621 10.56 19.7085C10.9364 16.1548 17.7412 0.232177 21.3269 0.232177C24.9125 0.232177 31.5291 18.2065 31.5291 21.3969C31.5291 24.5775 23.9715 36.7502 21.1387 36.7502ZM16.9785 63.7167C16.9785 63.7167 17.6421 44.8 15.1857 40.5886C12.7292 36.3772 0.545884 31.3216 0.545884 31.3216C0.545884 31.3216 -1.43515 48.3635 2.15051 53.9786C5.73617 59.5938 16.9884 63.7167 16.9884 63.7167L16.9785 63.7167ZM20.9505 113.232C17.7412 113.232 19.0487 39.332 20.9505 39.332C22.8522 39.332 24.3875 113.232 20.9505 113.232ZM16.9785 94.924C16.9785 94.924 17.6421 76.0072 15.1857 71.7958C12.7292 67.5845 0.545885 62.5289 0.545885 62.5289C0.545885 62.5289 -1.43515 79.5707 2.15051 85.1858C5.73618 90.801 16.9884 94.924 16.9884 94.924L16.9785 94.924Z" fill="#FFB90F"/>
<path d="M360.308 462.254C360.308 462.254 379.225 461.59 383.436 464.047C387.648 466.503 392.703 478.687 392.703 478.687C392.703 478.687 375.662 480.668 370.046 477.082C364.431 473.496 360.308 462.244 360.308 462.244V462.254ZM391.515 462.254C391.515 462.254 410.432 461.59 414.644 464.047C418.855 466.503 423.911 478.687 423.911 478.687C423.911 478.687 406.869 480.668 401.254 477.082C395.638 473.496 391.515 462.244 391.515 462.244V462.254ZM418.482 458.371C418.482 454.211 431.97 447.416 435.524 447.792C439.077 448.169 455 454.974 455 458.559C455 462.145 437.026 468.762 433.835 468.762C430.655 468.762 418.482 461.204 418.482 458.371ZM391.515 454.211C391.515 454.211 410.432 454.875 414.644 452.418C418.855 449.962 423.911 437.778 423.911 437.778C423.911 437.778 406.869 435.797 401.254 439.383C395.638 442.969 391.515 454.221 391.515 454.221V454.211ZM342 458.183C342 454.974 415.9 456.281 415.9 458.183C415.9 460.085 342 461.62 342 458.183ZM360.308 454.211C360.308 454.211 379.225 454.875 383.436 452.418C387.648 449.962 392.703 437.778 392.703 437.778C392.703 437.778 375.662 435.797 370.046 439.383C364.431 442.969 360.308 454.221 360.308 454.221V454.211Z" fill="#FFB90F"/>
</svg>
