<svg width="113" height="49" viewBox="0 0 113 49" fill="none" xmlns="http://www.w3.org/2000/svg">
<path d="M18.3082 29.1054C18.3082 29.1054 37.225 28.338 41.4364 31.1786C45.6477 34.0193 50.7033 48.1081 50.7033 48.1081C50.7033 48.1081 33.6615 50.399 28.0464 46.2525C22.4312 42.1061 18.3082 29.094 18.3082 29.094V29.1054ZM49.5155 29.1054C49.5155 29.1054 68.4322 28.338 72.6436 31.1786C76.8549 34.0193 81.9106 48.1081 81.9106 48.1081C81.9106 48.1081 64.8687 50.399 59.2536 46.2525C53.6384 42.1061 49.5155 29.094 49.5155 29.094V29.1054ZM76.4819 24.6154C76.4819 19.8046 89.9701 11.9469 93.5237 12.3822C97.0773 12.8174 113 20.6865 113 24.833C113 28.9794 95.0257 36.6309 91.8353 36.6309C88.6547 36.6309 76.4819 27.8913 76.4819 24.6154ZM49.5155 19.8045C49.5155 19.8045 68.4322 20.572 72.6436 17.7313C76.8549 14.8907 81.9106 0.801917 81.9106 0.801917C81.9106 0.801917 64.8687 -1.48895 59.2536 2.65751C53.6384 6.80396 49.5155 19.816 49.5155 19.816V19.8045ZM0 24.3977C0 20.6865 73.9001 22.1985 73.9001 24.3977C73.9001 26.5969 0 28.3724 0 24.3977ZM18.3082 19.8045C18.3082 19.8045 37.225 20.572 41.4364 17.7313C45.6477 14.8907 50.7033 0.801917 50.7033 0.801917C50.7033 0.801917 33.6615 -1.48895 28.0464 2.65751C22.4312 6.80396 18.3082 19.816 18.3082 19.816V19.8045Z" fill="#FFB90F"/>
</svg>
