<svg width="252" height="83" viewBox="0 0 252 83" fill="none" xmlns="http://www.w3.org/2000/svg">
<path d="M181.963 36.3999C187.611 36.0934 194.254 38.4291 196.583 44.0489C198.341 48.2882 198.092 53.8201 194.492 57.1119C205.929 54.8555 221.684 55.191 232.756 58.418C234.961 59.0609 238.224 60.5082 234.416 58.5824C224.313 53.472 212.352 51.3007 201.121 51.525C201.121 51.525 201.315 49.4039 200.865 46.7095C205.232 39.0633 213.988 31.6598 213.988 31.6598C207.696 34.4596 201.784 39.3949 199.236 41.6736C196.989 37.4111 192.179 33.9027 181.961 36.4008L181.963 36.3999Z" fill="#233243"/>
<path d="M200.759 82.1483L222.636 69.1868C210.627 70.5393 200.762 72.9823 189.131 75.8904C177.525 78.7916 169.547 78.81 168.578 64.5337C168.484 62.8303 168.686 64.4177 168.992 65.2578C171.295 71.2131 175.702 74.0632 182.062 73.282C187.993 72.5531 194.592 70.897 200.559 69.7465C204.386 69.0147 225.404 64.992 227.481 66.9874C228.39 67.8604 227.162 68.9557 226.448 69.4333C226.448 69.4333 215.741 76.2616 200.76 82.1492L200.759 82.1483Z" fill="#233243"/>
<path d="M197.44 29.4469C197.782 28.9558 218.549 15.9498 218.549 15.9498C217.172 21.4875 218.168 27.0957 224.254 28.9219C228.086 30.0724 233.594 30.7791 237.605 30.87C229.465 33.8486 216.306 33.7123 214.582 22.8168L214.493 22.1343L197.44 29.4469V29.4469Z" fill="#233243"/>
<path d="M246.042 36.6687C242.973 36.5662 242.892 33.0046 239.02 32.5077C238.49 32.44 239.554 33.1622 239.864 33.5209C242.439 36.6203 244.085 40.4961 248.941 38.6157C252.09 37.3966 252.058 33.9085 250.763 31.2857C249.84 29.414 250.899 32.005 250.076 34.2517C249.36 36.2065 247.947 36.6251 246.042 36.6677V36.6687Z" fill="#233243"/>
<path d="M221.318 8.91942C225.303 9.13017 228.68 10.1221 231.855 12.6076C231.855 12.6076 236.26 15.7922 237.79 17.7451C237.79 17.7451 233.976 18.7698 228.047 17.0857C228.047 17.0857 231.788 21.82 241.702 19.404C241.702 19.404 236.065 12.1755 229.321 8.56268C229.321 8.56268 228.133 6.12642 229.396 5.68654C230.66 5.24762 235.252 4.51481 234.183 0C234.183 0 232.847 2.34248 228.837 2.56291C224.828 2.78236 223.419 1.73342 221.232 4.46647C210.61 1.64157 195.837 1.2626 185.269 3.8052C184.535 3.98212 183.826 4.17451 183.098 4.3756C183.098 4.3756 201.658 2.47203 210.202 5.85959C207.254 8.92522 199.66 9.56038 195.765 9.45887C190.65 9.32546 186.383 8.10443 181.01 8.18564C176.907 8.24848 172.796 8.77827 168.744 9.38927C176.294 9.38346 182.286 9.93356 189.625 11.8159C202.826 15.2005 208.785 8.52304 221.318 8.91748V8.91942Z" fill="#233243"/>
<path d="M156.91 26.9177C157.531 26.8819 158.004 27.0163 158.443 27.1545C158.884 27.2967 159.255 27.3953 159.662 27.2551C159.844 27.1961 160.062 27.0598 160.298 26.8954L160.173 27.0057C160.281 26.9196 160.374 26.8442 160.475 26.7698C160.204 27.0289 159.976 27.2899 159.83 27.4745C159.571 27.8187 159.561 28.2422 159.49 28.7043C159.421 29.1693 159.32 29.7261 158.852 30.3023C158.736 30.4474 158.837 30.4203 159.065 30.2849C159.177 30.2163 159.325 30.1264 159.484 30.0065C159.643 29.8847 159.821 29.7435 160.006 29.5918C160.098 29.5154 160.193 29.439 160.286 29.3559C160.376 29.2698 160.468 29.1828 160.558 29.0968C160.737 28.9218 160.916 28.7497 161.073 28.5776C161.38 28.2228 161.633 27.9106 161.745 27.7066C161.846 27.5151 161.922 27.2889 161.978 27.054C162.034 26.8191 162.069 26.5774 162.076 26.3386C162.098 25.8668 162.059 25.4627 162.039 25.2925C162.039 25.2925 162.052 25.278 162.079 25.251C162.103 25.2229 162.139 25.1804 162.185 25.1272C162.276 25.0209 162.406 24.8691 162.562 24.6864C162.725 24.5085 162.885 24.2774 163.067 24.0377C163.155 23.9168 163.252 23.794 163.342 23.6635C163.428 23.5311 163.515 23.3957 163.603 23.2614C163.69 23.126 163.778 22.9916 163.864 22.8582C163.941 22.72 164.017 22.5837 164.091 22.4522C164.236 22.1873 164.381 21.9456 164.478 21.7232C164.684 21.2853 164.822 20.9943 164.822 20.9943L164.455 20.8454C164.455 20.8454 164.335 21.1383 164.154 21.5772C164.071 21.8006 163.94 22.0452 163.811 22.313C163.745 22.4464 163.677 22.5837 163.607 22.7238C163.53 22.8592 163.45 22.9965 163.371 23.1337C163.292 23.271 163.212 23.4093 163.134 23.5446C163.051 23.6771 162.963 23.8027 162.881 23.9275C162.714 24.174 162.565 24.4108 162.414 24.5955C162.269 24.785 162.147 24.9426 162.063 25.0528C161.979 25.1649 161.925 25.2239 161.925 25.2239C161.728 25.221 161.324 25.2191 160.901 25.2423C160.478 25.2664 160.01 25.2887 159.692 25.4134C159.507 25.4791 159.205 25.6212 158.879 25.804C158.71 25.889 158.531 25.9789 158.352 26.0698C158.264 26.1162 158.176 26.1636 158.089 26.21C157.999 26.2535 157.911 26.296 157.825 26.3376C157.653 26.4208 157.493 26.5029 157.354 26.5783C157.215 26.6518 157.088 26.7089 156.998 26.763C156.816 26.8664 156.759 26.9312 156.912 26.9206L156.91 26.9177ZM197.735 15.7786C197.497 15.7786 197.299 15.7776 197.159 15.7776H197.125C197.344 15.7409 197.542 15.7061 197.693 15.6664C197.891 15.6181 198.016 15.5871 198.016 15.5871C198.016 15.5871 197.74 15.3677 197.377 15.1299C197.011 14.8795 196.563 14.6068 196.19 14.5276C195.837 14.4396 194.97 14.4125 194.263 14.3719C193.91 14.3651 193.596 14.341 193.402 14.3497C193.207 14.3555 193.132 14.3825 193.262 14.4367C193.522 14.5459 193.731 14.6842 193.91 14.8321C194.089 14.9752 194.238 15.126 194.377 15.27C194.655 15.5581 194.895 15.825 195.266 15.8965C195.618 15.9555 196.269 15.9226 196.843 15.8259L196.736 15.8578L196.93 15.9323C196.94 15.9226 196.948 15.9139 196.957 15.9062C196.957 15.9062 196.976 15.9081 197.014 15.9129C197.051 15.9149 197.106 15.9178 197.175 15.9216C197.315 15.9294 197.514 15.94 197.754 15.9526L197.78 15.9545C197.579 15.9961 197.3 16.0319 197.002 16.086C196.405 16.2039 195.713 16.3074 195.359 16.4669C195.005 16.6158 194.809 16.9068 194.559 17.2413C194.432 17.4076 194.295 17.5855 194.113 17.7517C193.932 17.9132 193.709 18.0679 193.417 18.1984C193.272 18.2632 193.359 18.2844 193.585 18.2738C193.811 18.2622 194.175 18.2303 194.574 18.1471C195.377 18.0108 196.319 17.7295 196.669 17.5497C197.043 17.3447 197.415 16.9339 197.681 16.5771C197.872 16.3113 198.011 16.0744 198.074 15.9632C198.231 15.9632 198.399 15.9584 198.573 15.9574C198.723 15.9545 198.878 15.9574 199.036 15.9487C199.193 15.9361 199.353 15.9236 199.512 15.911C199.672 15.8984 199.832 15.8859 199.99 15.8733C200.146 15.8501 200.3 15.8279 200.448 15.8056C200.745 15.7602 201.025 15.7283 201.259 15.6693C201.731 15.5668 202.045 15.4982 202.045 15.4982L201.939 15.1154C201.939 15.1154 201.635 15.1985 201.178 15.3222C200.951 15.3928 200.679 15.4373 200.389 15.4982C200.244 15.5272 200.094 15.5572 199.941 15.5871C199.787 15.6074 199.63 15.6287 199.473 15.649C199.316 15.6703 199.158 15.6906 199.004 15.7109C198.849 15.7254 198.696 15.7322 198.548 15.7428C198.252 15.7602 197.974 15.7863 197.737 15.7786H197.735ZM192.068 16.3026C192.433 16.378 193.131 16.3664 193.728 16.2822C194.027 16.2445 194.303 16.2107 194.503 16.1662C194.702 16.1256 194.828 16.0995 194.828 16.0995C194.828 16.0995 194.56 15.8704 194.207 15.6181C193.851 15.3532 193.414 15.0641 193.044 14.9703C192.694 14.8688 191.828 14.8089 191.124 14.7403C190.771 14.7199 190.458 14.6842 190.264 14.6851C190.07 14.6832 189.995 14.7074 190.122 14.7664C190.377 14.8853 190.58 15.0312 190.754 15.1859C190.927 15.3367 191.071 15.4914 191.203 15.6422C191.47 15.941 191.701 16.2165 192.068 16.3026V16.3026ZM194.911 16.4108C194.911 16.4108 194.783 16.4282 194.579 16.4563C194.376 16.4901 194.096 16.5152 193.794 16.5587C193.192 16.6535 192.497 16.7308 192.138 16.8758C191.779 17.0112 191.571 17.2935 191.308 17.6183C191.176 17.7788 191.031 17.9519 190.844 18.1114C190.658 18.2661 190.429 18.412 190.132 18.531C189.985 18.5899 190.072 18.6141 190.298 18.6131C190.524 18.6102 190.889 18.5919 191.291 18.5252C192.098 18.4198 193.05 18.1752 193.407 18.0079C193.789 17.8175 194.175 17.4211 194.456 17.075C194.735 16.7163 194.912 16.4099 194.912 16.4099L194.911 16.4108ZM188.73 16.6245C189.096 16.6999 189.793 16.6883 190.39 16.6042C190.689 16.5665 190.966 16.5326 191.165 16.4882C191.364 16.4476 191.49 16.4215 191.49 16.4215C191.49 16.4215 191.223 16.1923 190.869 15.94C190.513 15.6751 190.076 15.3861 189.707 15.2923C189.357 15.1908 188.491 15.1308 187.788 15.0622C187.434 15.0419 187.122 15.0061 186.928 15.0071C186.734 15.0051 186.659 15.0293 186.785 15.0883C187.04 15.2072 187.244 15.3532 187.417 15.5079C187.59 15.6587 187.734 15.8134 187.867 15.9642C188.133 16.2629 188.364 16.5384 188.731 16.6245H188.73ZM191.573 16.7328C191.573 16.7328 191.444 16.7502 191.241 16.7782C191.038 16.813 190.758 16.8372 190.457 16.8807C189.854 16.9754 189.159 17.0528 188.8 17.1978C188.441 17.3331 188.233 17.6154 187.97 17.9403C187.839 18.1007 187.693 18.2738 187.506 18.4333C187.319 18.588 187.09 18.734 186.793 18.8529C186.646 18.9119 186.733 18.936 186.959 18.9351C187.185 18.9322 187.55 18.9138 187.952 18.8471C188.76 18.7417 189.712 18.4971 190.069 18.3308C190.45 18.1404 190.837 17.744 191.117 17.3979C191.396 17.0392 191.573 16.7328 191.573 16.7328ZM185.342 16.8584C185.702 16.959 186.399 16.9948 186.999 16.9503C187.301 16.9329 187.579 16.9184 187.781 16.8874C187.982 16.8604 188.109 16.843 188.109 16.843C188.109 16.843 187.857 16.5964 187.522 16.3209C187.185 16.0328 186.768 15.7148 186.405 15.5958C186.064 15.4702 185.203 15.3522 184.506 15.2362C184.154 15.1917 183.845 15.1347 183.652 15.1231C183.458 15.1086 183.381 15.127 183.504 15.1946C183.75 15.3309 183.943 15.4905 184.106 15.6567C184.269 15.8182 184.402 15.9835 184.524 16.1421C184.77 16.4582 184.982 16.7492 185.342 16.8594V16.8584ZM188.171 17.1601C188.171 17.1601 188.042 17.1688 187.837 17.1833C187.632 17.2036 187.35 17.2094 187.047 17.2316C186.44 17.2858 185.741 17.3148 185.374 17.4356C185.006 17.5468 184.78 17.8146 184.496 18.1201C184.353 18.2719 184.197 18.4343 183.999 18.5803C183.802 18.7224 183.564 18.8519 183.261 18.9505C183.11 18.9998 183.195 19.0298 183.42 19.0433C183.645 19.0559 184.011 19.0617 184.416 19.023C185.228 18.9728 186.195 18.7929 186.562 18.6508C186.956 18.4874 187.368 18.1172 187.671 17.7914C187.974 17.453 188.172 17.1591 188.172 17.1591L188.171 17.1601ZM181.976 16.9232C182.336 17.0238 183.033 17.0595 183.634 17.0151C183.935 16.9977 184.213 16.9832 184.414 16.9522C184.615 16.9252 184.742 16.9077 184.742 16.9077C184.742 16.9077 184.49 16.6612 184.155 16.3857C183.817 16.0976 183.402 15.7795 183.039 15.6606C182.697 15.5349 181.837 15.417 181.139 15.301C180.789 15.2565 180.479 15.1995 180.285 15.1879C180.092 15.1734 180.015 15.1917 180.137 15.2594C180.383 15.3957 180.577 15.5552 180.739 15.7215C180.902 15.883 181.035 16.0483 181.157 16.2068C181.404 16.523 181.615 16.814 181.975 16.9242L181.976 16.9232ZM184.806 17.2248C184.806 17.2248 184.677 17.2335 184.472 17.2481C184.267 17.2684 183.986 17.2742 183.683 17.2964C183.075 17.3505 182.377 17.3795 182.009 17.5004C181.641 17.6116 181.416 17.8794 181.131 18.1849C180.989 18.3366 180.832 18.4991 180.635 18.645C180.437 18.7871 180.199 18.9167 179.896 19.0153C179.745 19.0646 179.83 19.0946 180.055 19.1081C180.28 19.1207 180.646 19.1265 181.051 19.0878C181.864 19.0375 182.83 18.8577 183.198 18.7156C183.591 18.5522 184.004 18.182 184.306 17.8561C184.61 17.5178 184.807 17.2239 184.807 17.2239L184.806 17.2248ZM178.653 16.9039C179.009 17.017 179.704 17.0769 180.306 17.0537C180.608 17.047 180.887 17.0421 181.089 17.018C181.291 16.9977 181.419 16.9851 181.419 16.9851C181.419 16.9851 181.176 16.7299 180.85 16.4427C180.523 16.143 180.118 15.8105 179.759 15.679C179.421 15.5417 178.566 15.3928 177.872 15.2526C177.523 15.1956 177.216 15.1279 177.022 15.1096C176.829 15.0883 176.752 15.1038 176.872 15.1763C177.114 15.3213 177.301 15.4866 177.458 15.6587C177.615 15.8259 177.742 15.9951 177.86 16.1585C178.095 16.4824 178.296 16.7811 178.653 16.9039V16.9039ZM181.47 17.3041C181.47 17.3041 181.34 17.308 181.135 17.3157C180.93 17.3293 180.648 17.3254 180.344 17.337C179.736 17.3699 179.036 17.3737 178.664 17.482C178.293 17.5797 178.058 17.8397 177.763 18.1355C177.615 18.2815 177.454 18.4391 177.251 18.5783C177.049 18.7127 176.807 18.8345 176.501 18.9225C176.348 18.966 176.431 18.9989 176.657 19.0211C176.882 19.0414 177.247 19.0607 177.653 19.0356C178.466 19.0134 179.439 18.8684 179.811 18.7388C180.209 18.589 180.635 18.2342 180.948 17.919C181.263 17.5913 181.47 17.3041 181.47 17.3041V17.3041ZM175.447 16.7076C175.796 16.8401 176.486 16.9387 177.09 16.9493C177.391 16.959 177.67 16.9696 177.873 16.9571C178.076 16.9484 178.204 16.9426 178.204 16.9426C178.204 16.9426 177.976 16.6738 177.666 16.3693C177.356 16.0522 176.97 15.6974 176.619 15.5456C176.29 15.3899 175.444 15.1946 174.759 15.0158C174.413 14.9394 174.11 14.8553 173.918 14.8253C173.727 14.7925 173.649 14.805 173.764 14.8833C173.998 15.0409 174.176 15.2178 174.323 15.3977C174.47 15.5736 174.587 15.7496 174.695 15.9187C174.912 16.2552 175.096 16.5645 175.446 16.7067L175.447 16.7076ZM178.238 17.2626C178.238 17.2626 178.108 17.2597 177.903 17.2558C177.697 17.2577 177.416 17.2384 177.112 17.2335C176.503 17.2326 175.804 17.1987 175.427 17.2858C175.05 17.3631 174.802 17.6087 174.491 17.889C174.335 18.0273 174.165 18.1752 173.956 18.3028C173.747 18.4265 173.498 18.5339 173.187 18.6054C173.032 18.6412 173.114 18.6789 173.337 18.7127C173.56 18.7456 173.924 18.7852 174.331 18.7823C175.145 18.8055 176.123 18.7137 176.502 18.6054C176.908 18.4778 177.352 18.1471 177.683 17.8494C178.015 17.54 178.238 17.2645 178.238 17.2645V17.2626ZM172.191 16.4959C172.54 16.6284 173.23 16.727 173.834 16.7376C174.135 16.7473 174.414 16.7579 174.617 16.7453C174.82 16.7366 174.948 16.7308 174.948 16.7308C174.948 16.7308 174.72 16.4621 174.41 16.1575C174.1 15.8404 173.714 15.4856 173.363 15.3348C173.034 15.1792 172.188 14.9839 171.503 14.805C171.157 14.7286 170.854 14.6445 170.662 14.6146C170.471 14.5817 170.393 14.5943 170.508 14.6726C170.742 14.8311 170.92 15.0071 171.067 15.1869C171.214 15.3628 171.331 15.5388 171.439 15.708C171.657 16.0444 171.84 16.3538 172.19 16.4959H172.191ZM174.982 17.0508C174.982 17.0508 174.852 17.0479 174.647 17.0441C174.441 17.046 174.16 17.0267 173.856 17.0218C173.247 17.0209 172.548 16.9861 172.171 17.074C171.794 17.1514 171.546 17.3979 171.235 17.6773C171.079 17.8155 170.909 17.9635 170.7 18.0911C170.491 18.2148 170.242 18.3221 169.931 18.3937C169.776 18.4294 169.858 18.4662 170.081 18.501C170.304 18.5339 170.668 18.5725 171.075 18.5706C171.889 18.5938 172.867 18.502 173.246 18.3937C173.652 18.2661 174.096 17.9354 174.427 17.6377C174.759 17.3273 174.982 17.0528 174.982 17.0528V17.0508ZM168.785 16.4795C169.142 16.5877 169.838 16.64 170.439 16.61C170.74 16.5993 171.019 16.5916 171.222 16.5655C171.424 16.5433 171.551 16.5288 171.551 16.5288C171.551 16.5288 171.305 16.2764 170.976 15.9932C170.645 15.6974 170.236 15.3696 169.876 15.242C169.537 15.1086 168.681 14.9703 167.985 14.8389C167.635 14.7867 167.327 14.7228 167.134 14.7054C166.941 14.6861 166.864 14.7035 166.984 14.7741C167.227 14.9162 167.417 15.0796 167.576 15.2497C167.735 15.4151 167.864 15.5833 167.983 15.7447C168.222 16.0657 168.427 16.3615 168.785 16.4804V16.4795ZM171.607 16.8459C171.607 16.8459 171.477 16.8517 171.272 16.8613C171.067 16.8768 170.785 16.8768 170.48 16.8923C169.872 16.9319 169.173 16.9445 168.803 17.0576C168.433 17.1601 168.2 17.4221 167.91 17.7218C167.763 17.8697 167.604 18.0292 167.403 18.1703C167.202 18.3076 166.961 18.4323 166.656 18.5232C166.504 18.5687 166.588 18.6006 166.813 18.6199C167.038 18.6373 167.403 18.6518 167.809 18.6218C168.622 18.5909 169.592 18.4333 169.963 18.2999C170.359 18.1452 170.781 17.7856 171.091 17.4665C171.402 17.1349 171.606 16.8459 171.606 16.8459H171.607ZM165.61 16.5761C165.972 16.6709 166.668 16.696 167.269 16.6419C167.569 16.6197 167.848 16.6013 168.049 16.5674C168.25 16.5375 168.377 16.5181 168.377 16.5181C168.377 16.5181 168.122 16.2755 167.783 16.0048C167.441 15.7225 167.019 15.4102 166.655 15.2971C166.311 15.1772 165.45 15.0719 164.749 14.9674C164.398 14.9288 164.088 14.8766 163.893 14.8669C163.7 14.8553 163.623 14.8746 163.746 14.9413C163.994 15.0738 164.191 15.2304 164.355 15.3938C164.521 15.5523 164.656 15.7157 164.781 15.8733C165.032 16.1846 165.248 16.4727 165.609 16.5771L165.61 16.5761ZM168.444 16.8333C168.444 16.8333 168.315 16.8439 168.11 16.8613C167.906 16.8855 167.624 16.8952 167.321 16.9222C166.714 16.9861 166.016 17.0257 165.651 17.1523C165.285 17.2684 165.063 17.54 164.784 17.8513C164.644 18.005 164.489 18.1703 164.295 18.3192C164.1 18.4642 163.864 18.5977 163.562 18.7011C163.412 18.7523 163.498 18.7813 163.723 18.792C163.948 18.8007 164.314 18.8016 164.718 18.7562C165.531 18.6934 166.494 18.4981 166.859 18.3511C167.249 18.181 167.657 17.8049 167.954 17.4743C168.251 17.1311 168.445 16.8343 168.445 16.8343L168.444 16.8333ZM162.357 16.9068C162.723 16.9851 163.42 16.9793 164.017 16.9C164.317 16.8642 164.594 16.8333 164.793 16.7908C164.992 16.7511 165.119 16.726 165.119 16.726C165.119 16.726 164.853 16.4949 164.502 16.2397C164.147 15.9719 163.713 15.679 163.344 15.5823C162.995 15.4779 162.13 15.4112 161.426 15.3367C161.072 15.3135 160.761 15.2749 160.566 15.2739C160.372 15.27 160.297 15.2942 160.423 15.3542C160.677 15.475 160.879 15.6229 161.051 15.7795C161.223 15.9313 161.365 16.0879 161.498 16.2397C161.762 16.5394 161.991 16.8178 162.357 16.9068V16.9068ZM165.199 17.0383C165.199 17.0383 165.07 17.0547 164.867 17.0808C164.664 17.1137 164.383 17.1359 164.082 17.1765C163.479 17.2664 162.784 17.337 162.424 17.4801C162.064 17.6125 161.854 17.8939 161.587 18.2168C161.454 18.3763 161.307 18.5484 161.12 18.7059C161.094 18.7262 161.068 18.7465 161.042 18.7668C161.22 18.5706 161.38 18.3492 161.512 18.1462C161.753 17.7604 161.897 17.4366 161.897 17.4366C161.897 17.4366 161.771 17.4675 161.572 17.5168C161.374 17.5729 161.097 17.627 160.802 17.7015C160.213 17.859 159.53 18.0079 159.188 18.1907C158.844 18.3627 158.668 18.6663 158.44 19.0172C158.325 19.1913 158.198 19.3778 158.03 19.5557C157.896 19.693 157.736 19.8264 157.536 19.9502C157.806 19.665 158.035 19.2541 158.196 18.9012C158.376 18.4836 158.471 18.1423 158.471 18.1423C158.471 18.1423 158.35 18.1916 158.161 18.2699C157.973 18.354 157.708 18.4497 157.427 18.5667C156.867 18.8104 156.214 19.0598 155.903 19.2908C155.589 19.5122 155.458 19.838 155.285 20.2199C155.197 20.4084 155.1 20.6124 154.959 20.8135C154.816 21.0107 154.632 21.2099 154.375 21.3994C154.247 21.4941 154.337 21.4951 154.555 21.4371C154.773 21.3771 155.121 21.2669 155.494 21.1016C156.197 20.8164 156.992 20.3833 157.344 20.1223C157.385 20.1252 157.451 20.1213 157.537 20.1116C157.761 20.0855 158.122 20.0285 158.515 19.9202C159.284 19.7355 160.174 19.4068 160.534 19.2019H160.567C160.793 19.2009 161.158 19.1855 161.56 19.1216C162.369 19.023 163.323 18.7852 163.681 18.6228C164.064 18.4352 164.453 18.0418 164.736 17.6986C165.018 17.3428 165.198 17.0373 165.198 17.0373L165.199 17.0383ZM159.058 17.629C159.429 17.6657 160.121 17.5806 160.707 17.4337C161 17.3641 161.273 17.3022 161.465 17.2374C161.659 17.1755 161.782 17.1369 161.782 17.1369C161.782 17.1369 161.491 16.9368 161.114 16.7231C160.733 16.4978 160.268 16.2561 159.889 16.201C159.531 16.1363 158.664 16.1682 157.957 16.1749C157.604 16.1914 157.289 16.1894 157.096 16.2097C156.903 16.2281 156.831 16.261 156.963 16.3055C157.229 16.3973 157.447 16.521 157.635 16.6574C157.823 16.7888 157.982 16.9281 158.13 17.0634C158.427 17.3312 158.684 17.5816 159.059 17.629H159.058ZM155.724 18.7504C156.096 18.7311 156.768 18.5445 157.325 18.3115C157.606 18.1994 157.865 18.0969 158.046 18.0041C158.229 17.9142 158.344 17.8571 158.344 17.8571C158.344 17.8571 158.027 17.7024 157.623 17.5477C157.213 17.3815 156.717 17.2123 156.335 17.2142C155.971 17.2045 155.119 17.365 154.42 17.4762C154.073 17.5448 153.761 17.5893 153.574 17.6396C153.385 17.687 153.319 17.7295 153.455 17.7546C153.733 17.8059 153.965 17.8958 154.172 18.0012C154.378 18.1027 154.555 18.2168 154.722 18.3289C155.055 18.5493 155.347 18.7591 155.724 18.7494V18.7504ZM152.446 20.2856C152.813 20.2209 153.458 19.954 153.983 19.6553C154.247 19.5093 154.493 19.3769 154.661 19.2618C154.832 19.1507 154.939 19.0801 154.939 19.0801C154.939 19.0801 154.606 18.965 154.186 18.8606C153.759 18.7456 153.246 18.6373 152.867 18.6866C152.505 18.7204 151.678 18.9844 150.997 19.1797C150.661 19.2908 150.357 19.373 150.177 19.4446C149.996 19.5151 149.935 19.5644 150.074 19.5731C150.355 19.5905 150.598 19.6514 150.815 19.7317C151.032 19.8071 151.221 19.8989 151.401 19.9908C151.758 20.1696 152.073 20.3417 152.446 20.2866V20.2856ZM155.1 19.3479C155.1 19.3479 154.988 19.4117 154.809 19.5122C154.632 19.6195 154.38 19.7452 154.116 19.897C153.59 20.2073 152.971 20.5341 152.691 20.8019C152.406 21.06 152.316 21.3994 152.19 21.7986C152.126 21.9968 152.053 22.2114 151.938 22.428C151.82 22.6407 151.66 22.8611 151.428 23.0806C151.313 23.1898 151.402 23.1801 151.612 23.096C151.821 23.01 152.154 22.8582 152.503 22.6484C153.217 22.253 154.013 21.6749 154.284 21.3887C154.569 21.0707 154.785 20.5602 154.919 20.1348C155.048 19.6988 155.101 19.3479 155.101 19.3479H155.1ZM149.242 22.4918C149.174 22.4696 148.861 22.3816 148.432 22.4164C148.007 22.4589 147.455 22.5933 146.883 23.0525C146.629 23.2391 146.139 23.7621 145.646 24.2446C145.406 24.4969 145.162 24.7299 144.967 24.93C144.779 25.1263 144.636 25.2896 144.583 25.3834L144.608 25.395C144.719 25.4066 144.922 25.3921 145.18 25.3592C145.462 25.3244 145.81 25.2674 146.157 25.1756C146.862 25.016 147.576 24.7511 147.88 24.5945C148.567 24.2059 148.926 23.7167 149.086 23.2971C149.251 22.8824 149.246 22.5614 149.242 22.4908V22.4918ZM149.504 21.9504C149.866 21.8576 150.488 21.5405 150.988 21.2021C151.24 21.0359 151.475 20.885 151.633 20.7574C151.795 20.6327 151.896 20.5544 151.896 20.5544C151.896 20.5544 151.555 20.4655 151.128 20.3949C150.693 20.3137 150.173 20.246 149.8 20.3243C149.442 20.3872 148.637 20.7139 147.974 20.9624C147.648 21.0997 147.351 21.205 147.177 21.2901C147.002 21.3742 146.944 21.4293 147.084 21.4264C147.366 21.4216 147.612 21.4632 147.836 21.526C148.057 21.585 148.253 21.6614 148.439 21.7377C148.809 21.8885 149.137 22.0355 149.503 21.9504H149.504ZM152.078 20.8077C152.078 20.8077 151.97 20.8802 151.8 20.9952C151.632 21.1151 151.391 21.2611 151.139 21.4322C150.639 21.7822 150.047 22.1573 149.788 22.4454C149.525 22.7258 149.461 23.0709 149.366 23.4789C149.318 23.6809 149.262 23.9004 149.163 24.1256C149.062 24.347 148.92 24.5791 148.706 24.8169C148.599 24.9348 148.687 24.9184 148.889 24.8179C149.091 24.7154 149.411 24.5385 149.743 24.3016C150.424 23.8521 151.172 23.213 151.421 22.9066C151.681 22.5672 151.856 22.0413 151.957 21.6072C152.052 21.1625 152.077 20.8087 152.077 20.8087L152.078 20.8077ZM139.774 30.7548C139.748 30.6881 139.619 30.3874 139.322 30.0761C139.022 29.7716 138.57 29.4255 137.854 29.2689C137.55 29.1886 136.836 29.1364 136.153 29.0552C135.807 29.0272 135.473 28.9846 135.195 28.9585C134.925 28.9353 134.709 28.9266 134.603 28.945L134.609 28.9721C134.67 29.0658 134.809 29.2147 134.997 29.3945C135.202 29.5927 135.466 29.8286 135.755 30.0403C136.322 30.4899 136.977 30.8795 137.289 31.0177C138.022 31.3087 138.627 31.2797 139.052 31.1396C139.477 31.0081 139.722 30.8002 139.774 30.7538V30.7548ZM140.065 30.5286C140.395 30.7045 141.066 30.8921 141.662 30.981C141.96 31.0293 142.235 31.0767 142.438 31.0903C142.641 31.1077 142.768 31.1183 142.768 31.1183C142.768 31.1183 142.576 30.8225 142.308 30.4802C142.04 30.1254 141.704 29.7242 141.375 29.5289C141.068 29.3317 140.255 29.0291 139.599 28.7632C139.266 28.6434 138.976 28.5206 138.79 28.4655C138.604 28.4094 138.526 28.4104 138.63 28.5032C138.84 28.6898 138.995 28.888 139.117 29.0852C139.242 29.2785 139.335 29.468 139.421 29.6507C139.593 30.0123 139.735 30.3429 140.064 30.5295L140.065 30.5286ZM142.732 31.4277C142.732 31.4277 142.604 31.4083 142.4 31.3774C142.196 31.3532 141.92 31.2962 141.619 31.2527C141.015 31.1724 140.326 31.0487 139.941 31.0864C139.558 31.1144 139.28 31.3261 138.936 31.563C138.764 31.68 138.576 31.8037 138.351 31.9033C138.128 31.9981 137.868 32.0735 137.551 32.1034C137.393 32.1179 137.469 32.1663 137.686 32.2291C137.904 32.29 138.259 32.3761 138.663 32.4263C139.468 32.5549 140.45 32.5897 140.838 32.5327C141.258 32.4582 141.74 32.1885 142.107 31.9362C142.476 31.6713 142.733 31.4277 142.733 31.4277H142.732ZM141.518 29.1403C141.998 29.4642 142.247 29.8702 142.467 30.2211C142.686 30.5701 142.872 30.8814 143.229 31.039C143.407 31.1222 143.675 31.1753 143.974 31.2217C144.274 31.2662 144.605 31.3097 144.916 31.3165C145.226 31.33 145.514 31.3358 145.723 31.3377C145.828 31.3406 145.913 31.3339 145.972 31.3319C146.032 31.329 146.065 31.3281 146.065 31.3281C146.065 31.3281 145.833 31.0545 145.52 30.7219C145.205 30.3893 144.812 30.0374 144.455 29.8596C144.287 29.7783 143.986 29.6826 143.637 29.5898C143.291 29.4864 142.899 29.3762 142.544 29.2911C141.839 29.0929 141.28 28.9769 141.517 29.1393L141.518 29.1403ZM146.064 31.6403C146.064 31.6403 145.531 31.6181 144.905 31.592C144.591 31.5901 144.255 31.5649 143.948 31.5669C143.641 31.5659 143.363 31.5862 143.169 31.6152C142.782 31.6839 142.521 31.9429 142.196 32.2272C141.873 32.5095 141.488 32.7995 140.847 32.9465C140.527 33.017 141.185 33.105 142.018 33.1437C142.437 33.1485 142.897 33.1466 143.303 33.1224C143.709 33.0876 144.059 33.0422 144.255 32.989C144.675 32.8807 145.139 32.5278 145.484 32.2281C145.831 31.9275 146.065 31.6403 146.065 31.6403H146.064ZM146.529 31.1831C146.926 31.3116 147.688 31.3058 148.348 31.2691C148.677 31.2401 148.981 31.2063 149.202 31.1802C149.424 31.156 149.561 31.127 149.561 31.127C149.561 31.127 149.49 31.0632 149.375 30.9597C149.257 30.8534 149.093 30.7093 148.907 30.5585C148.532 30.255 148.074 29.9272 147.676 29.7841C147.489 29.7174 147.161 29.6691 146.784 29.6014C146.595 29.5676 146.394 29.5357 146.193 29.5067C145.991 29.4787 145.789 29.4525 145.597 29.4187C145.213 29.3568 144.871 29.3201 144.658 29.3056C144.446 29.2872 144.362 29.3075 144.497 29.3829C145.587 29.962 145.739 30.9501 146.53 31.1831H146.529ZM149.6 31.4364C149.6 31.4364 149.459 31.4528 149.233 31.4663C149.008 31.4818 148.701 31.506 148.368 31.5408C147.703 31.5891 146.938 31.6655 146.535 31.7796C145.73 32.03 145.559 33.0112 144.234 33.4685C144.069 33.5207 144.163 33.5546 144.409 33.572C144.656 33.5855 145.056 33.5662 145.501 33.5362C145.723 33.5246 145.957 33.4946 146.189 33.4617C146.42 33.4298 146.649 33.3941 146.863 33.3573C147.291 33.2839 147.656 33.1756 147.858 33.0973C148.291 32.9281 148.738 32.5027 149.064 32.1334C149.227 31.9487 149.361 31.7757 149.454 31.65C149.548 31.5214 149.6 31.4373 149.6 31.4373V31.4364ZM147.753 29.3907C148.041 29.5115 148.272 29.6498 148.473 29.7996C148.672 29.9504 148.839 30.1158 148.996 30.2724C149.311 30.5904 149.581 30.8592 149.989 30.923C150.192 30.951 150.485 30.9636 150.805 30.923C151.125 30.8872 151.477 30.8321 151.801 30.7712C152.122 30.6958 152.419 30.6194 152.633 30.5614C152.741 30.5324 152.829 30.5083 152.889 30.4918C152.95 30.4754 152.983 30.4628 152.983 30.4628C152.983 30.4628 152.903 30.4077 152.773 30.3197C152.642 30.2318 152.46 30.1119 152.255 29.9881C152.05 29.8644 151.823 29.7358 151.597 29.6314C151.37 29.5222 151.142 29.4255 150.938 29.3878C150.554 29.322 149.612 29.3114 148.842 29.2911C148.072 29.2824 147.467 29.2747 147.751 29.3926L147.753 29.3907ZM153.066 30.7625C153.066 30.7625 153.031 30.7722 152.968 30.7848C152.906 30.7983 152.816 30.8167 152.706 30.8399C152.485 30.8872 152.184 30.9549 151.86 31.0361C151.532 31.1028 151.182 31.1782 150.865 31.2643C150.55 31.3532 150.263 31.4199 150.072 31.5118C149.689 31.6887 149.485 32.03 149.219 32.3935C149.086 32.5781 148.938 32.7724 148.744 32.961C148.551 33.1514 148.31 33.3341 147.993 33.4772C147.678 33.6213 148.385 33.5758 149.264 33.3854C150.144 33.2065 151.18 32.872 151.557 32.6439C151.76 32.5249 151.963 32.3558 152.145 32.1566C152.327 31.9526 152.492 31.7303 152.629 31.5234C152.765 31.3165 152.875 31.127 152.95 30.9887C153.025 30.8515 153.066 30.7616 153.066 30.7616V30.7625ZM150.864 29.0049C151.461 29.1664 151.853 29.4477 152.204 29.7155C152.555 29.9814 152.863 30.2279 153.273 30.2289C153.686 30.2414 154.424 30.0432 155.042 29.8112C155.349 29.6894 155.634 29.5811 155.835 29.4825C156.035 29.3839 156.161 29.322 156.161 29.322C156.161 29.322 156.074 29.2814 155.932 29.2157C155.789 29.15 155.596 29.0707 155.374 28.9759C155.152 28.8822 154.908 28.7874 154.669 28.7139C154.55 28.6772 154.433 28.6482 154.319 28.624C154.203 28.597 154.093 28.5796 153.989 28.5747C153.891 28.5699 153.761 28.5747 153.609 28.5873C153.458 28.6028 153.283 28.6192 153.095 28.6347C152.908 28.653 152.709 28.6762 152.512 28.7023C152.313 28.7226 152.112 28.7439 151.922 28.7632C151.733 28.7855 151.554 28.8087 151.399 28.8328C151.241 28.8522 151.103 28.8677 151 28.887C150.793 28.9247 150.717 28.9663 150.865 29.004L150.864 29.0049ZM156.288 29.6063C156.288 29.6063 156.156 29.6604 155.947 29.7474C155.739 29.8373 155.447 29.9379 155.138 30.0655C154.515 30.311 153.794 30.5788 153.437 30.8022C153.083 31.038 152.922 31.3851 152.708 31.7892C152.492 32.1914 152.222 32.6555 151.627 33.0267C151.478 33.1214 151.579 33.1292 151.824 33.0808C151.946 33.0557 152.105 33.0199 152.287 32.9677C152.468 32.9107 152.671 32.842 152.885 32.7666C153.097 32.6903 153.322 32.611 153.54 32.5201C153.758 32.4244 153.973 32.3268 154.172 32.232C154.372 32.1392 154.555 32.0435 154.708 31.9497C154.862 31.8579 154.988 31.7757 155.075 31.7071C155.169 31.6345 155.259 31.5475 155.346 31.4518C155.431 31.3542 155.512 31.243 155.588 31.1299C155.74 30.9027 155.871 30.6591 155.977 30.4367C156.083 30.2153 156.157 29.9997 156.209 29.8499C156.26 29.6981 156.287 29.6053 156.287 29.6053L156.288 29.6063ZM153.954 28.1764C154.259 28.217 154.511 28.275 154.744 28.3698C154.976 28.4597 155.183 28.5728 155.376 28.6782C155.76 28.8793 156.099 29.062 156.51 29.0088C156.712 28.9759 156.985 28.8773 157.282 28.7526C157.581 28.6289 157.886 28.4471 158.173 28.2857C158.458 28.1184 158.705 27.9376 158.889 27.8129C159.073 27.6892 159.18 27.5973 159.18 27.5973C159.18 27.5973 159.088 27.5751 158.937 27.5383C158.784 27.4997 158.573 27.4494 158.34 27.4011C158.106 27.3508 157.857 27.3112 157.608 27.2783C157.359 27.2435 157.12 27.229 156.92 27.257C156.546 27.315 155.665 27.5761 154.947 27.7839C154.58 27.8757 154.263 27.9753 154.068 28.0449C153.871 28.1107 153.804 28.1609 153.954 28.1783V28.1764ZM159.36 27.8506C159.36 27.8506 159.244 27.9328 159.049 28.0507C158.856 28.1677 158.6 28.3437 158.314 28.5186C158.024 28.6859 157.725 28.888 157.445 29.0581C157.165 29.2292 156.922 29.4003 156.766 29.5463C156.45 29.8228 156.351 30.2037 156.203 30.6446C156.127 30.8602 156.039 31.0874 155.902 31.3232C155.765 31.5562 155.584 31.8115 155.313 32.0367C155.179 32.1508 155.279 32.145 155.519 32.0609C155.757 31.9729 156.127 31.7902 156.532 31.5804C157.339 31.1347 158.249 30.4918 158.542 30.1457C158.701 29.964 158.838 29.73 158.952 29.4835C159.065 29.236 159.145 28.9614 159.207 28.7207C159.269 28.478 159.308 28.2625 159.331 28.1068C159.354 27.9502 159.359 27.8506 159.359 27.8506H159.36Z" fill="#FF601B"/>
<path d="M7.79984 61.0321C6.08569 61.0321 4.61407 60.7498 3.38308 60.1862C2.15208 59.6226 1.02407 58.767 0 57.6194L3.01349 54.6215C3.68337 55.3929 4.42639 55.9914 5.24449 56.4168C6.06163 56.8421 7.01254 57.0548 8.09532 57.0548C9.07993 57.0548 9.84316 56.8769 10.385 56.5202C10.9269 56.1644 11.1974 55.6694 11.1974 55.0362C11.1974 54.462 11.0203 53.9969 10.6661 53.6412C10.3119 53.2854 9.84316 52.978 9.26279 52.7208C8.68146 52.4636 8.04142 52.2161 7.34171 51.9793C6.64296 51.7415 5.94805 51.4698 5.25893 51.1633C4.5698 50.8569 3.93457 50.4711 3.35324 50.0061C2.77191 49.5411 2.30415 48.9572 1.94996 48.2553C1.59577 47.5534 1.41868 46.6679 1.41868 45.5986C1.41868 44.3128 1.72859 43.2049 2.34938 42.2749C2.97018 41.3448 3.83159 40.6381 4.93457 40.1528C6.03756 39.6684 7.30802 39.4258 8.74595 39.4258C10.2031 39.4258 11.5381 39.6829 12.7498 40.1973C13.9616 40.7116 14.9606 41.4144 15.7489 42.3048L12.7354 45.3028C12.105 44.6502 11.4697 44.1649 10.8297 43.8488C10.1897 43.5326 9.46588 43.3741 8.65836 43.3741C7.85085 43.3741 7.21081 43.5268 6.73728 43.8343C6.26471 44.1407 6.02794 44.5816 6.02794 45.1549C6.02794 45.6885 6.20503 46.1197 6.55922 46.4455C6.91341 46.7723 7.38213 47.0536 7.9625 47.2914C8.54383 47.5292 9.18387 47.7661 9.88262 48.0039C10.5814 48.2418 11.2763 48.5183 11.9654 48.8354C12.6545 49.1515 13.2898 49.5527 13.8711 50.037C14.4524 50.5214 14.9202 51.1353 15.2744 51.8768C15.6286 52.6183 15.8057 53.5338 15.8057 54.6224C15.8057 56.6207 15.0963 58.1888 13.6786 59.3267C12.2599 60.4646 10.3003 61.0331 7.79888 61.0331L7.79984 61.0321ZM21.0963 60.7053L29.3697 39.7525H33.5651L41.7499 60.7053H36.8452L30.5815 43.3132H32.2658L25.9135 60.7053H21.0973H21.0963ZM25.7941 56.9069V53.1075H37.1696V56.9069H25.7941ZM48.4564 60.7053V39.7525H51.7654L59.9791 52.6038H58.2948L66.4796 39.7525H69.8184V60.7053H65.1793V47.6172L66.007 47.8251L60.6596 56.1944H57.5864L52.2678 47.8251L53.0657 47.6172V60.7053H48.4564V60.7053ZM81.8444 60.7053V57.0848H86.7492C87.6549 57.0848 88.3642 56.818 88.8762 56.2833C89.3883 55.7497 89.6443 55.0961 89.6443 54.3247C89.6443 53.791 89.5259 53.3154 89.2901 52.9006C89.0533 52.4849 88.7242 52.1591 88.3007 51.9213C87.8772 51.6835 87.3604 51.5655 86.7492 51.5655H81.8444V48.0339H86.3652C87.1332 48.0339 87.754 47.8405 88.2266 47.4548C88.6991 47.0691 88.9359 46.4803 88.9359 45.6885C88.9359 44.917 88.6991 44.3379 88.2266 43.9522C87.754 43.5665 87.1332 43.3731 86.3652 43.3731H81.8444V39.7525H87.2516C88.5913 39.7525 89.729 40 90.6645 40.4941C91.6 40.989 92.3142 41.6513 92.807 42.4827C93.2988 43.3141 93.5452 44.2335 93.5452 45.2428C93.5452 46.5286 93.1313 47.6172 92.3046 48.5076C91.4768 49.398 90.2555 50.0109 88.6404 50.3474L88.7588 48.7744C90.5124 49.1109 91.8666 49.7934 92.8214 50.8221C93.7771 51.8507 94.2545 53.1172 94.2545 54.6215C94.2545 55.769 93.9735 56.8025 93.4124 57.7229C92.8512 58.6432 92.0428 59.3702 90.9898 59.9039C89.9359 60.4376 88.6703 60.7053 87.1929 60.7053H81.8454H81.8444ZM78.2987 60.7053V39.7525H82.8781V60.7053H78.2987ZM101.729 60.7053V39.7525H106.368V60.7053H101.729ZM114.641 60.7053V39.7525H119.309V60.7053H114.641ZM104.506 51.9503V47.914H116.177V51.9503H104.506ZM126.223 60.7053L134.496 39.7525H138.692L146.877 60.7053H141.972L135.708 43.3132H137.392L131.04 60.7053H126.224H126.223ZM130.921 56.9069V53.1075H142.296V56.9069H130.921ZM157.66 60.7053L149.623 39.7525H154.587L160.703 56.6991H158.665L164.87 39.7525H169.775L161.649 60.7053H157.661H157.66Z" fill="#233243"/>
<path d="M33.3928 82.9981C32.6142 82.9981 31.8914 82.8511 31.2253 82.5563C30.5583 82.2614 29.9751 81.8544 29.4736 81.3352C28.9722 80.8161 28.5805 80.2099 28.2975 79.5196C28.0145 78.8284 27.874 78.0869 27.874 77.2941C27.874 76.4907 28.0126 75.7463 28.2898 75.0609C28.567 74.3754 28.9568 73.7751 29.4582 73.2608C29.9597 72.7464 30.541 72.3452 31.2022 72.0552C31.8635 71.7661 32.5834 71.6211 33.362 71.6211C34.1407 71.6211 34.8635 71.7661 35.5295 72.0552C36.1965 72.3443 36.7797 72.7464 37.2812 73.2608C37.7826 73.7751 38.1715 74.3774 38.4496 75.0686C38.7268 75.7599 38.8654 76.5072 38.8654 77.3106C38.8654 78.1033 38.7268 78.8458 38.4496 79.5361C38.1724 80.2273 37.7855 80.8296 37.2899 81.3439C36.7942 81.8583 36.2148 82.2624 35.5545 82.5572C34.8933 82.8521 34.1734 82.999 33.3947 82.999L33.3928 82.9981ZM33.3611 81.8573C34.1926 81.8573 34.9318 81.6591 35.5767 81.2627C36.2225 80.8663 36.7287 80.325 37.0964 79.6395C37.4641 78.9541 37.6489 78.172 37.6489 77.2932C37.6489 76.6396 37.542 76.0373 37.3293 75.4853C37.1156 74.9333 36.8173 74.4518 36.4333 74.039C36.0492 73.6262 35.5988 73.3081 35.081 73.0829C34.5641 72.8576 33.9905 72.7455 33.3611 72.7455C32.5401 72.7455 31.8067 72.9408 31.1609 73.3323C30.515 73.7229 30.0088 74.2614 29.6411 74.9478C29.2735 75.6332 29.0896 76.4153 29.0896 77.2941C29.0896 77.9477 29.1965 78.5529 29.4092 79.1097C29.6228 79.6666 29.9212 80.1519 30.3052 80.5637C30.6892 80.9766 31.1426 81.2946 31.6652 81.5199C32.1878 81.7451 32.7528 81.8573 33.3611 81.8573V81.8573ZM49.1917 82.8376L44.8077 71.7816H46.0878L49.8789 81.5363H49.415L53.2389 71.7816H54.4863L50.0705 82.8376H49.1908H49.1917ZM61.647 82.8376V71.7816H62.8145V82.8376H61.647ZM62.4151 82.8376V81.7606H68.8944V82.8376H62.4151ZM62.4151 77.6953V76.6512H68.3824V77.6953H62.4151ZM62.4151 72.8586V71.7816H68.7982V72.8586H62.4151ZM76.9811 77.8887V76.8919H80.1803C80.906 76.8919 81.4604 76.7073 81.8444 76.337C82.2285 75.9677 82.42 75.4718 82.42 74.8501C82.42 74.2498 82.2285 73.7596 81.8444 73.3797C81.4604 72.9997 80.906 72.8093 80.1803 72.8093H76.9811V71.7806H80.1803C80.8955 71.7806 81.5085 71.9121 82.0206 72.1741C82.5326 72.4361 82.9243 72.7987 83.1967 73.2588C83.4681 73.72 83.6048 74.2449 83.6048 74.8337C83.6048 75.4447 83.4691 75.9803 83.1967 76.4405C82.9243 76.9007 82.5326 77.2574 82.0206 77.5087C81.5085 77.7601 80.8955 77.8868 80.1803 77.8868H76.9811V77.8887ZM76.2294 82.8386V71.7826H77.3969V82.8386H76.2294ZM82.8849 82.8386L78.7568 77.7282L79.8926 77.3589L84.3882 82.8386H82.8849V82.8386ZM93.9802 82.999C93.1275 82.999 92.3912 82.8357 91.7723 82.5089C91.1534 82.1821 90.6096 81.7239 90.14 81.1351L90.9561 80.3317C91.3296 80.8567 91.7636 81.2472 92.2603 81.5044C92.756 81.7616 93.3459 81.8902 94.0283 81.8902C94.7329 81.8902 95.3026 81.7297 95.7406 81.4077C96.1775 81.0868 96.397 80.6421 96.397 80.0736C96.397 79.6347 96.2959 79.2731 96.0928 78.9889C95.8897 78.7046 95.626 78.4746 95.3007 78.2976C94.9754 78.1207 94.6154 77.9631 94.2208 77.8239C93.8262 77.6847 93.4345 77.5378 93.0447 77.3821C92.6559 77.2265 92.2959 77.0312 91.9648 76.7953C91.6347 76.5594 91.37 76.2597 91.1727 75.8952C90.9754 75.5307 90.8772 75.0648 90.8772 74.4973C90.8772 73.8969 91.0216 73.3835 91.3094 72.9543C91.5971 72.526 91.9917 72.1964 92.4932 71.9663C92.9946 71.7362 93.5654 71.6211 94.2054 71.6211C94.9205 71.6211 95.5577 71.7603 96.1169 72.0388C96.677 72.3172 97.1438 72.6923 97.5163 73.1641L96.7165 73.9675C96.3748 73.5605 96.0014 73.2492 95.5962 73.0355C95.191 72.8209 94.7165 72.7145 94.1727 72.7145C93.5327 72.7145 93.0206 72.8644 92.6366 73.1641C92.2526 73.4638 92.061 73.8824 92.061 74.418C92.061 74.8356 92.1592 75.173 92.3565 75.4302C92.5538 75.6874 92.8175 75.902 93.1486 76.0731C93.4788 76.2442 93.8397 76.397 94.2285 76.5313C94.6174 76.6657 95.01 76.8127 95.4047 76.9732C95.7993 77.1336 96.1592 77.3376 96.4845 77.5842C96.8099 77.8307 97.0736 78.1439 97.2767 78.5239C97.4797 78.9038 97.5808 79.3891 97.5808 79.9779C97.5808 80.9311 97.2584 81.6736 96.6126 82.2034C95.9677 82.7341 95.0899 82.999 93.9812 82.999H93.9802ZM104.963 82.8386V71.7826H106.13V82.8386H104.963ZM105.731 82.8386V81.7616H112.21V82.8386H105.731ZM105.731 77.6963V76.6522H111.698V77.6963H105.731ZM105.731 72.8596V71.7826H112.114V72.8596H105.731ZM118.73 82.8386L123.242 71.7826H124.122L128.586 82.8386H127.322L123.435 73.0684H123.899L119.979 82.8386H118.731H118.73ZM120.794 79.9624V78.9183H126.553V79.9624H120.794ZM138.304 83C137.451 83 136.715 82.8366 136.096 82.5099C135.477 82.1831 134.933 81.7248 134.464 81.1361L135.28 80.3327C135.653 80.8576 136.087 81.2482 136.584 81.5054C137.08 81.7625 137.67 81.8911 138.352 81.8911C139.056 81.8911 139.626 81.7306 140.064 81.4087C140.501 81.0877 140.721 80.643 140.721 80.0746C140.721 79.6356 140.62 79.2741 140.416 78.9898C140.213 78.7056 139.95 78.4755 139.624 78.2986C139.299 78.1217 138.939 77.9641 138.544 77.8249C138.15 77.6857 137.758 77.5387 137.368 77.3831C136.979 77.2274 136.619 77.0321 136.288 76.7962C135.958 76.5603 135.694 76.2606 135.496 75.8962C135.299 75.5317 135.201 75.0657 135.201 74.4982C135.201 73.8979 135.345 73.3845 135.633 72.9553C135.921 72.527 136.315 72.1973 136.817 71.9672C137.318 71.7371 137.889 71.6221 138.529 71.6221C139.244 71.6221 139.881 71.7613 140.44 72.0397C141.001 72.3182 141.467 72.6933 141.84 73.1651L141.04 73.9684C140.698 73.5614 140.325 73.2501 139.92 73.0365C139.515 72.8218 139.04 72.7155 138.496 72.7155C137.856 72.7155 137.344 72.8654 136.96 73.1651C136.576 73.4648 136.385 73.8834 136.385 74.419C136.385 74.8366 136.483 75.174 136.68 75.4312C136.877 75.6883 137.141 75.9029 137.472 76.0741C137.802 76.2452 138.163 76.3979 138.552 76.5323C138.941 76.6667 139.334 76.8136 139.728 76.9741C140.123 77.1346 140.483 77.3386 140.808 77.5851C141.133 77.8317 141.397 78.1449 141.6 78.5248C141.803 78.9048 141.904 79.3901 141.904 79.9789C141.904 80.9321 141.582 81.6746 140.936 82.2044C140.291 82.7351 139.414 83 138.305 83H138.304Z" fill="#FF601B"/>
<path d="M148.88 77.7022C148.88 77.7022 150.735 77.6374 151.148 77.8772C151.561 78.1169 152.056 79.306 152.056 79.306C152.056 79.306 150.386 79.4994 149.835 79.1494C149.284 78.7995 148.88 77.7012 148.88 77.7012V77.7022ZM151.94 77.7022C151.94 77.7022 153.795 77.6374 154.207 77.8772C154.62 78.1169 155.116 79.306 155.116 79.306C155.116 79.306 153.445 79.4994 152.895 79.1494C152.344 78.7995 151.94 77.7012 151.94 77.7012V77.7022ZM154.584 77.3232C154.584 76.9172 155.906 76.254 156.255 76.2907C156.603 76.3274 158.164 76.9916 158.164 77.3416C158.164 77.6915 156.402 78.3373 156.089 78.3373C155.777 78.3373 154.584 77.5997 154.584 77.3232V77.3232ZM151.94 76.9172C151.94 76.9172 153.795 76.9819 154.207 76.7422C154.62 76.5024 155.116 75.3133 155.116 75.3133C155.116 75.3133 153.445 75.1199 152.895 75.4699C152.344 75.8199 151.94 76.9181 151.94 76.9181V76.9172ZM147.085 77.3048C147.085 76.9916 154.331 77.1192 154.331 77.3048C154.331 77.4905 147.085 77.6403 147.085 77.3048ZM148.88 76.9172C148.88 76.9172 150.735 76.9819 151.148 76.7422C151.561 76.5024 152.056 75.3133 152.056 75.3133C152.056 75.3133 150.386 75.1199 149.835 75.4699C149.284 75.8199 148.88 76.9181 148.88 76.9181V76.9172Z" fill="#FF601B"/>
<path d="M22.6891 77.3048C22.6891 76.9916 15.4436 77.1192 15.4436 77.3048C15.4436 77.4904 22.6891 77.6403 22.6891 77.3048ZM15.1905 77.3232C15.1905 76.9171 13.8681 76.2539 13.5196 76.2907C13.1712 76.3274 11.6101 76.9916 11.6101 77.3415C11.6101 77.6915 13.3724 78.3373 13.6852 78.3373C13.997 78.3373 15.1905 77.5997 15.1905 77.3232V77.3232ZM17.8344 77.7022C17.8344 77.7022 15.9797 77.6374 15.5668 77.8771C15.1539 78.1169 14.6582 79.306 14.6582 79.306C14.6582 79.306 16.3291 79.4994 16.8796 79.1494C17.4302 78.7994 17.8344 77.7012 17.8344 77.7012V77.7022ZM20.8941 77.7022C20.8941 77.7022 19.0394 77.6374 18.6265 77.8771C18.2136 78.1169 17.7179 79.306 17.7179 79.306C17.7179 79.306 19.3888 79.4994 19.9393 79.1494C20.4898 78.7994 20.8941 77.7012 20.8941 77.7012V77.7022ZM17.8344 76.9181C17.8344 76.9181 15.9797 76.9829 15.5668 76.7431C15.1539 76.5034 14.6582 75.3142 14.6582 75.3142C14.6582 75.3142 16.3291 75.1209 16.8796 75.4709C17.4302 75.8208 17.8344 76.9191 17.8344 76.9191V76.9181ZM20.8941 76.9181C20.8941 76.9181 19.0394 76.9829 18.6265 76.7431C18.2136 76.5034 17.7179 75.3142 17.7179 75.3142C17.7179 75.3142 19.3888 75.1209 19.9393 75.4709C20.4898 75.8208 20.8941 76.9191 20.8941 76.9191V76.9181Z" fill="#FF601B"/>
</svg>
