<svg width="252" height="84" viewBox="0 0 252 84" fill="none" xmlns="http://www.w3.org/2000/svg">
<path d="M181.963 36.6326C187.611 36.3262 194.254 38.6619 196.583 44.2817C198.341 48.521 198.093 54.0529 194.492 57.3447C205.929 55.0883 221.685 55.4237 232.756 58.6508C234.961 59.2937 238.225 60.741 234.416 58.8152C224.313 53.7048 212.352 51.5335 201.121 51.7578C201.121 51.7578 201.315 49.6367 200.865 46.9423C205.232 39.2961 213.988 31.8926 213.988 31.8926C207.696 34.6923 201.785 39.6277 199.236 41.9064C196.99 37.6439 192.179 34.1355 181.962 36.6336L181.963 36.6326Z" fill="#F9F9F9"/>
<path d="M200.759 82.381L222.636 69.4195C210.627 70.7721 200.762 73.2151 189.131 76.1231C177.525 79.0244 169.547 79.0428 168.578 64.7665C168.484 63.063 168.686 64.6505 168.992 65.4906C171.295 71.4459 175.702 74.2959 182.062 73.5148C187.993 72.7858 194.592 71.1298 200.559 69.9793C204.386 69.2475 225.404 65.2247 227.481 67.2201C228.39 68.0931 227.162 69.1885 226.448 69.6661C226.448 69.6661 215.741 76.4944 200.76 82.382L200.759 82.381Z" fill="#F9F9F9"/>
<path d="M197.44 29.6797C197.781 29.1886 218.549 16.1826 218.549 16.1826C217.171 21.7203 218.168 27.3285 224.254 29.1547C228.086 30.3052 233.594 31.0119 237.605 31.1028C229.465 34.0814 216.306 33.9451 214.582 23.0496L214.493 22.367L197.44 29.6797Z" fill="#F9F9F9"/>
<path d="M246.042 36.9014C242.973 36.7989 242.892 33.2373 239.02 32.7404C238.49 32.6727 239.554 33.3949 239.864 33.7536C242.439 36.853 244.085 40.7288 248.941 38.8485C252.09 37.6294 252.058 34.1413 250.763 31.5184C249.84 29.6467 250.899 32.2377 250.076 34.4845C249.36 36.4393 247.947 36.8579 246.042 36.9004V36.9014Z" fill="#F9F9F9"/>
<path d="M221.319 9.15233C225.303 9.36308 228.681 10.355 231.855 12.8406C231.855 12.8406 236.26 16.0251 237.79 17.978C237.79 17.978 233.976 19.0027 228.047 17.3186C228.047 17.3186 231.788 22.0529 241.702 19.6369C241.702 19.6369 236.066 12.4084 229.322 8.79559C229.322 8.79559 228.133 6.35933 229.397 5.91945C230.66 5.48053 235.252 4.74772 234.183 0.23291C234.183 0.23291 232.847 2.57539 228.837 2.79582C224.828 3.01527 223.419 1.96633 221.232 4.69939C210.61 1.87448 195.837 1.49551 185.269 4.03811C184.535 4.21503 183.826 4.40742 183.098 4.60851C183.098 4.60851 201.658 2.70494 210.202 6.0925C207.254 9.15813 199.66 9.79329 195.765 9.69178C190.651 9.55837 186.383 8.33734 181.01 8.41855C176.907 8.48139 172.796 9.01118 168.744 9.62218C176.294 9.61637 182.286 10.1665 189.625 12.0488C202.826 15.4334 208.785 8.75595 221.319 9.15039V9.15233Z" fill="#F9F9F9"/>
<path d="M156.91 27.1504C157.531 27.1147 158.004 27.249 158.443 27.3873C158.884 27.5294 159.255 27.628 159.662 27.4878C159.844 27.4289 160.062 27.2926 160.297 27.1282L160.173 27.2384C160.281 27.1524 160.373 27.077 160.475 27.0025C160.204 27.2616 159.976 27.5226 159.83 27.7073C159.571 28.0515 159.561 28.4749 159.49 28.937C159.421 29.402 159.32 29.9589 158.852 30.5351C158.736 30.6801 158.837 30.653 159.065 30.5177C159.177 30.4491 159.324 30.3591 159.484 30.2393C159.643 30.1175 159.821 29.9763 160.006 29.8245C160.098 29.7481 160.193 29.6718 160.286 29.5886C160.376 29.5026 160.468 29.4156 160.558 29.3295C160.737 29.1546 160.916 28.9825 161.073 28.8104C161.38 28.4556 161.632 28.1433 161.745 27.9393C161.846 27.7479 161.922 27.5217 161.978 27.2868C162.034 27.0518 162.069 26.8101 162.076 26.5713C162.098 26.0996 162.059 25.6954 162.039 25.5253C162.039 25.5253 162.052 25.5108 162.079 25.4837C162.103 25.4557 162.139 25.4132 162.185 25.36C162.276 25.2536 162.406 25.1019 162.562 24.9191C162.725 24.7412 162.885 24.5102 163.066 24.2704C163.155 24.1496 163.252 24.0268 163.342 23.8963C163.427 23.7638 163.515 23.6285 163.603 23.4941C163.69 23.3588 163.778 23.2244 163.863 23.091C163.94 22.9527 164.016 22.8164 164.091 22.6849C164.236 22.42 164.381 22.1783 164.477 21.956C164.684 21.518 164.822 21.227 164.822 21.227L164.455 21.0782C164.455 21.0782 164.335 21.3711 164.154 21.81C164.071 22.0333 163.94 22.2779 163.81 22.5457C163.745 22.6791 163.677 22.8164 163.607 22.9566C163.529 23.0919 163.45 23.2292 163.371 23.3665C163.292 23.5038 163.212 23.642 163.134 23.7774C163.051 23.9098 162.963 24.0355 162.881 24.1602C162.714 24.4067 162.565 24.6436 162.414 24.8283C162.269 25.0177 162.147 25.1753 162.063 25.2855C161.979 25.3977 161.925 25.4567 161.925 25.4567C161.728 25.4538 161.323 25.4518 160.901 25.475C160.477 25.4992 160.01 25.5214 159.692 25.6461C159.507 25.7119 159.205 25.854 158.879 26.0367C158.71 26.1218 158.531 26.2117 158.352 26.3026C158.264 26.349 158.176 26.3964 158.089 26.4428C157.999 26.4863 157.911 26.5288 157.825 26.5704C157.653 26.6535 157.493 26.7357 157.354 26.8111C157.215 26.8846 157.088 26.9416 156.998 26.9958C156.816 27.0992 156.758 27.164 156.911 27.1533L156.91 27.1504ZM197.735 16.0113C197.497 16.0113 197.299 16.0104 197.159 16.0104H197.125C197.344 15.9736 197.542 15.9388 197.693 15.8992C197.89 15.8508 198.016 15.8199 198.016 15.8199C198.016 15.8199 197.739 15.6004 197.377 15.3626C197.011 15.1122 196.563 14.8396 196.19 14.7603C195.837 14.6723 194.969 14.6453 194.263 14.6047C193.91 14.5979 193.596 14.5737 193.402 14.5824C193.207 14.5882 193.132 14.6153 193.262 14.6694C193.522 14.7787 193.731 14.9169 193.91 15.0649C194.089 15.2079 194.238 15.3587 194.377 15.5028C194.655 15.7909 194.895 16.0577 195.266 16.1293C195.618 16.1882 196.269 16.1554 196.843 16.0587L196.736 16.0906L196.93 16.165C196.94 16.1554 196.948 16.1467 196.957 16.1389C196.957 16.1389 196.976 16.1409 197.014 16.1457C197.051 16.1476 197.106 16.1505 197.175 16.1544C197.315 16.1621 197.514 16.1728 197.754 16.1853L197.78 16.1873C197.579 16.2288 197.3 16.2646 197.002 16.3188C196.404 16.4367 195.712 16.5401 195.359 16.6997C195.005 16.8485 194.809 17.1395 194.558 17.474C194.432 17.6403 194.295 17.8182 194.113 17.9845C193.932 18.1459 193.709 18.3006 193.417 18.4311C193.272 18.4959 193.359 18.5172 193.585 18.5066C193.811 18.495 194.175 18.463 194.574 18.3799C195.377 18.2436 196.319 17.9623 196.669 17.7824C197.043 17.5775 197.415 17.1666 197.681 16.8099C197.872 16.544 198.011 16.3071 198.074 16.196C198.231 16.196 198.399 16.1911 198.573 16.1902C198.723 16.1873 198.878 16.1902 199.036 16.1815C199.193 16.1689 199.352 16.1563 199.512 16.1438C199.672 16.1312 199.832 16.1186 199.99 16.1061C200.146 16.0829 200.3 16.0606 200.448 16.0384C200.745 15.993 201.025 15.961 201.259 15.9021C201.731 15.7996 202.045 15.731 202.045 15.731L201.939 15.3481C201.939 15.3481 201.634 15.4313 201.178 15.555C200.951 15.6256 200.679 15.67 200.389 15.731C200.244 15.76 200.094 15.7899 199.941 15.8199C199.787 15.8402 199.63 15.8615 199.473 15.8818C199.316 15.903 199.158 15.9233 199.004 15.9436C198.849 15.9581 198.696 15.9649 198.548 15.9755C198.251 15.9929 197.974 16.0191 197.736 16.0113H197.735ZM192.068 16.5353C192.433 16.6107 193.131 16.5991 193.728 16.515C194.027 16.4773 194.303 16.4435 194.503 16.399C194.702 16.3584 194.828 16.3323 194.828 16.3323C194.828 16.3323 194.56 16.1032 194.207 15.8508C193.851 15.5859 193.414 15.2969 193.043 15.2031C192.694 15.1016 191.828 15.0416 191.124 14.973C190.771 14.9527 190.458 14.9169 190.264 14.9179C190.069 14.916 189.994 14.9401 190.121 14.9991C190.376 15.118 190.58 15.264 190.754 15.4187C190.927 15.5695 191.07 15.7242 191.203 15.875C191.47 16.1737 191.701 16.4493 192.068 16.5353ZM194.911 16.6436C194.911 16.6436 194.783 16.661 194.579 16.689C194.376 16.7229 194.095 16.748 193.794 16.7915C193.192 16.8862 192.497 16.9636 192.138 17.1086C191.779 17.2439 191.571 17.5262 191.308 17.8511C191.176 18.0116 191.031 18.1846 190.844 18.3441C190.658 18.4988 190.428 18.6448 190.132 18.7637C189.985 18.8227 190.071 18.8469 190.298 18.8459C190.524 18.843 190.889 18.8246 191.291 18.7579C192.098 18.6525 193.05 18.4079 193.407 18.2407C193.788 18.0502 194.175 17.6539 194.455 17.3078C194.735 16.9491 194.912 16.6426 194.912 16.6426L194.911 16.6436ZM188.73 16.8572C189.095 16.9327 189.793 16.921 190.39 16.8369C190.689 16.7992 190.966 16.7654 191.165 16.7209C191.364 16.6803 191.49 16.6542 191.49 16.6542C191.49 16.6542 191.223 16.4251 190.869 16.1728C190.513 15.9079 190.076 15.6188 189.707 15.525C189.357 15.4235 188.491 15.3636 187.787 15.2949C187.434 15.2746 187.121 15.2389 186.928 15.2398C186.734 15.2379 186.658 15.2621 186.785 15.321C187.04 15.44 187.244 15.5859 187.417 15.7406C187.59 15.8914 187.734 16.0461 187.866 16.1969C188.133 16.4957 188.364 16.7712 188.731 16.8572H188.73ZM191.573 16.9655C191.573 16.9655 191.444 16.9829 191.241 17.011C191.038 17.0458 190.758 17.0699 190.456 17.1134C189.854 17.2082 189.159 17.2855 188.8 17.4305C188.441 17.5659 188.233 17.8482 187.97 18.173C187.838 18.3335 187.693 18.5066 187.505 18.6661C187.319 18.8208 187.09 18.9667 186.793 19.0856C186.646 19.1446 186.733 19.1688 186.959 19.1678C187.185 19.1649 187.55 19.1466 187.952 19.0798C188.76 18.9745 189.711 18.7299 190.069 18.5636C190.45 18.3731 190.837 17.9768 191.117 17.6307C191.396 17.272 191.573 16.9655 191.573 16.9655ZM185.342 17.0912C185.702 17.1917 186.399 17.2275 186.999 17.183C187.3 17.1656 187.579 17.1511 187.781 17.1202C187.982 17.0931 188.109 17.0757 188.109 17.0757C188.109 17.0757 187.857 16.8292 187.522 16.5537C187.185 16.2656 186.768 15.9475 186.405 15.8286C186.064 15.7029 185.203 15.585 184.505 15.469C184.154 15.4245 183.845 15.3674 183.652 15.3558C183.458 15.3413 183.381 15.3597 183.504 15.4274C183.75 15.5637 183.943 15.7232 184.106 15.8895C184.269 16.051 184.401 16.2163 184.524 16.3748C184.77 16.691 184.982 16.982 185.342 17.0922V17.0912ZM188.171 17.3928C188.171 17.3928 188.042 17.4015 187.837 17.416C187.632 17.4363 187.35 17.4421 187.047 17.4644C186.44 17.5185 185.741 17.5475 185.374 17.6684C185.006 17.7795 184.78 18.0473 184.496 18.3528C184.353 18.5046 184.196 18.667 183.999 18.813C183.802 18.9551 183.564 19.0847 183.261 19.1833C183.11 19.2326 183.195 19.2626 183.42 19.2761C183.645 19.2887 184.011 19.2945 184.416 19.2558C185.228 19.2055 186.195 19.0257 186.562 18.8836C186.956 18.7202 187.368 18.3499 187.671 18.0241C187.974 17.6858 188.171 17.3919 188.171 17.3919L188.171 17.3928ZM181.976 17.156C182.336 17.2565 183.033 17.2923 183.633 17.2478C183.935 17.2304 184.213 17.2159 184.414 17.185C184.615 17.1579 184.742 17.1405 184.742 17.1405C184.742 17.1405 184.49 16.894 184.155 16.6185C183.817 16.3304 183.401 16.0123 183.039 15.8934C182.697 15.7677 181.837 15.6497 181.139 15.5337C180.788 15.4893 180.478 15.4322 180.285 15.4206C180.092 15.4061 180.015 15.4245 180.137 15.4922C180.383 15.6285 180.577 15.788 180.739 15.9543C180.902 16.1157 181.035 16.281 181.157 16.4396C181.403 16.7557 181.615 17.0467 181.975 17.1569L181.976 17.156ZM184.806 17.4576C184.806 17.4576 184.677 17.4663 184.472 17.4808C184.267 17.5011 183.986 17.5069 183.683 17.5291C183.075 17.5833 182.376 17.6123 182.009 17.7331C181.641 17.8443 181.416 18.1121 181.131 18.4176C180.989 18.5694 180.832 18.7318 180.634 18.8778C180.437 19.0199 180.199 19.1495 179.896 19.2481C179.745 19.2974 179.83 19.3273 180.055 19.3409C180.28 19.3534 180.646 19.3592 181.051 19.3206C181.863 19.2703 182.83 19.0905 183.197 18.9484C183.591 18.785 184.004 18.4147 184.306 18.0889C184.609 17.7505 184.807 17.4566 184.807 17.4566L184.806 17.4576ZM178.653 17.1366C179.009 17.2498 179.704 17.3097 180.306 17.2865C180.607 17.2797 180.887 17.2749 181.089 17.2507C181.291 17.2304 181.419 17.2178 181.419 17.2178C181.419 17.2178 181.176 16.9626 180.85 16.6755C180.523 16.3758 180.118 16.0432 179.759 15.9117C179.421 15.7745 178.566 15.6256 177.872 15.4854C177.523 15.4284 177.216 15.3607 177.022 15.3423C176.829 15.321 176.752 15.3365 176.872 15.409C177.114 15.554 177.301 15.7194 177.458 15.8914C177.615 16.0587 177.742 16.2279 177.86 16.3913C178.094 16.7151 178.296 17.0139 178.653 17.1366ZM181.47 17.5369C181.47 17.5369 181.34 17.5407 181.135 17.5485C180.93 17.562 180.648 17.5582 180.344 17.5698C179.735 17.6026 179.036 17.6065 178.664 17.7148C178.293 17.8124 178.058 18.0725 177.763 18.3683C177.615 18.5143 177.453 18.6719 177.251 18.8111C177.049 18.9455 176.807 19.0673 176.501 19.1553C176.348 19.1988 176.431 19.2316 176.657 19.2539C176.882 19.2742 177.247 19.2935 177.653 19.2684C178.466 19.2461 179.439 19.1011 179.811 18.9716C180.209 18.8217 180.634 18.4669 180.948 18.1517C181.263 17.824 181.47 17.5369 181.47 17.5369ZM175.447 16.9404C175.796 17.0728 176.486 17.1714 177.09 17.1821C177.391 17.1917 177.67 17.2024 177.873 17.1898C178.076 17.1811 178.204 17.1753 178.204 17.1753C178.204 17.1753 177.976 16.9065 177.666 16.602C177.356 16.2849 176.97 15.9301 176.619 15.7783C176.29 15.6227 175.444 15.4274 174.759 15.2485C174.413 15.1722 174.11 15.0881 173.918 15.0581C173.727 15.0252 173.649 15.0378 173.764 15.1161C173.998 15.2737 174.176 15.4506 174.323 15.6304C174.47 15.8064 174.587 15.9823 174.695 16.1515C174.912 16.4879 175.096 16.7973 175.446 16.9394L175.447 16.9404ZM178.238 17.4953C178.238 17.4953 178.108 17.4924 177.903 17.4885C177.697 17.4905 177.416 17.4711 177.112 17.4663C176.503 17.4653 175.804 17.4315 175.426 17.5185C175.05 17.5959 174.802 17.8414 174.491 18.1218C174.335 18.26 174.165 18.4079 173.956 18.5356C173.747 18.6593 173.498 18.7666 173.187 18.8382C173.032 18.8739 173.114 18.9116 173.337 18.9455C173.56 18.9783 173.924 19.018 174.331 19.0151C175.144 19.0383 176.123 18.9464 176.502 18.8382C176.908 18.7105 177.352 18.3799 177.683 18.0821C178.015 17.7728 178.238 17.4972 178.238 17.4972V17.4953ZM172.191 16.7287C172.54 16.8611 173.23 16.9597 173.834 16.9704C174.135 16.98 174.414 16.9907 174.617 16.9781C174.82 16.9694 174.948 16.9636 174.948 16.9636C174.948 16.9636 174.72 16.6948 174.41 16.3903C174.1 16.0732 173.714 15.7184 173.363 15.5676C173.034 15.4119 172.188 15.2166 171.502 15.0378C171.157 14.9614 170.854 14.8773 170.662 14.8473C170.471 14.8145 170.393 14.827 170.508 14.9053C170.742 15.0639 170.92 15.2398 171.066 15.4197C171.214 15.5956 171.331 15.7716 171.439 15.9407C171.656 16.2772 171.84 16.5865 172.19 16.7287H172.191ZM174.982 17.2836C174.982 17.2836 174.852 17.2807 174.647 17.2768C174.441 17.2788 174.16 17.2594 173.856 17.2546C173.246 17.2536 172.548 17.2188 172.17 17.3068C171.794 17.3841 171.546 17.6307 171.235 17.9101C171.079 18.0483 170.909 18.1962 170.7 18.3238C170.491 18.4476 170.242 18.5549 169.931 18.6264C169.776 18.6622 169.858 18.6989 170.081 18.7337C170.304 18.7666 170.668 18.8053 171.075 18.8033C171.888 18.8266 172.867 18.7347 173.246 18.6264C173.652 18.4988 174.096 18.1682 174.426 17.8704C174.759 17.5601 174.982 17.2855 174.982 17.2855V17.2836ZM168.784 16.7122C169.142 16.8205 169.837 16.8727 170.439 16.8427C170.74 16.8321 171.019 16.8244 171.221 16.7983C171.424 16.776 171.551 16.7615 171.551 16.7615C171.551 16.7615 171.305 16.5092 170.976 16.2259C170.645 15.9301 170.236 15.6024 169.876 15.4748C169.537 15.3413 168.681 15.2031 167.985 15.0716C167.635 15.0194 167.327 14.9556 167.134 14.9382C166.94 14.9189 166.863 14.9363 166.984 15.0068C167.227 15.149 167.417 15.3123 167.576 15.4825C167.734 15.6478 167.863 15.816 167.983 15.9775C168.221 16.2984 168.426 16.5943 168.784 16.7132V16.7122ZM171.606 17.0786C171.606 17.0786 171.477 17.0844 171.272 17.0941C171.066 17.1096 170.784 17.1096 170.48 17.125C169.872 17.1647 169.173 17.1772 168.803 17.2904C168.433 17.3928 168.2 17.6548 167.91 17.9545C167.763 18.1024 167.604 18.262 167.402 18.4031C167.202 18.5404 166.961 18.6651 166.656 18.756C166.503 18.8014 166.588 18.8333 166.812 18.8527C167.038 18.8701 167.402 18.8846 167.809 18.8546C168.622 18.8237 169.592 18.6661 169.963 18.5327C170.359 18.378 170.781 18.0183 171.091 17.6993C171.401 17.3677 171.605 17.0786 171.605 17.0786H171.606ZM165.61 16.8089C165.972 16.9036 166.668 16.9288 167.269 16.8746C167.569 16.8524 167.848 16.834 168.049 16.8002C168.25 16.7702 168.377 16.7509 168.377 16.7509C168.377 16.7509 168.122 16.5082 167.783 16.2375C167.441 15.9552 167.019 15.643 166.655 15.5299C166.311 15.41 165.45 15.3046 164.749 15.2002C164.398 15.1615 164.088 15.1093 163.893 15.0997C163.7 15.0881 163.623 15.1074 163.746 15.1741C163.994 15.3065 164.191 15.4632 164.355 15.6265C164.521 15.7851 164.655 15.9485 164.781 16.1061C165.032 16.4174 165.247 16.7055 165.609 16.8099L165.61 16.8089ZM168.444 17.0661C168.444 17.0661 168.315 17.0767 168.11 17.0941C167.906 17.1183 167.624 17.1279 167.321 17.155C166.714 17.2188 166.015 17.2585 165.651 17.3851C165.285 17.5011 165.063 17.7728 164.783 18.0841C164.644 18.2378 164.489 18.4031 164.295 18.552C164.1 18.697 163.863 18.8304 163.562 18.9339C163.412 18.9851 163.498 19.0141 163.723 19.0247C163.948 19.0334 164.314 19.0344 164.718 18.989C165.53 18.9261 166.494 18.7308 166.859 18.5839C167.249 18.4137 167.656 18.0377 167.954 17.707C168.251 17.3638 168.445 17.067 168.445 17.067L168.444 17.0661ZM162.357 17.1395C162.723 17.2178 163.42 17.212 164.017 17.1328C164.317 17.097 164.594 17.0661 164.793 17.0235C164.992 16.9839 165.118 16.9588 165.118 16.9588C165.118 16.9588 164.853 16.7277 164.502 16.4725C164.147 16.2047 163.713 15.9117 163.344 15.8151C162.995 15.7107 162.13 15.6439 161.425 15.5695C161.072 15.5463 160.76 15.5076 160.566 15.5067C160.372 15.5028 160.296 15.527 160.423 15.5869C160.677 15.7078 160.879 15.8557 161.051 16.0123C161.223 16.1641 161.365 16.3207 161.498 16.4725C161.762 16.7722 161.99 17.0506 162.357 17.1395ZM165.199 17.271C165.199 17.271 165.07 17.2875 164.867 17.3136C164.664 17.3464 164.383 17.3687 164.082 17.4093C163.479 17.4992 162.783 17.5698 162.424 17.7128C162.064 17.8453 161.854 18.1266 161.587 18.4495C161.454 18.609 161.307 18.7811 161.119 18.9387C161.094 18.959 161.067 18.9793 161.041 18.9996C161.219 18.8033 161.38 18.582 161.512 18.3789C161.753 17.9932 161.897 17.6693 161.897 17.6693C161.897 17.6693 161.771 17.7003 161.572 17.7496C161.373 17.8056 161.097 17.8598 160.802 17.9342C160.213 18.0918 159.529 18.2407 159.188 18.4234C158.844 18.5955 158.668 18.8991 158.44 19.25C158.325 19.424 158.198 19.6106 158.03 19.7885C157.896 19.9258 157.736 20.0592 157.536 20.1829C157.806 19.8977 158.035 19.4869 158.195 19.134C158.376 18.7163 158.471 18.3751 158.471 18.3751C158.471 18.3751 158.35 18.4244 158.161 18.5027C157.973 18.5868 157.707 18.6825 157.426 18.7995C156.867 19.0431 156.214 19.2925 155.903 19.5236C155.589 19.745 155.458 20.0708 155.285 20.4527C155.197 20.6412 155.1 20.8452 154.959 21.0463C154.816 21.2435 154.631 21.4426 154.374 21.6321C154.246 21.7269 154.337 21.7278 154.555 21.6698C154.773 21.6099 155.121 21.4997 155.494 21.3344C156.197 21.0492 156.992 20.616 157.344 20.355C157.385 20.3579 157.45 20.354 157.537 20.3444C157.761 20.3183 158.122 20.2612 158.515 20.153C159.284 19.9683 160.174 19.6396 160.534 19.4346H160.567C160.793 19.4337 161.158 19.4182 161.56 19.3544C162.369 19.2558 163.322 19.018 163.681 18.8556C164.064 18.668 164.453 18.2745 164.736 17.9313C165.018 17.5756 165.198 17.2701 165.198 17.2701L165.199 17.271ZM159.058 17.8617C159.429 17.8985 160.121 17.8134 160.706 17.6664C161 17.5968 161.272 17.5349 161.465 17.4702C161.659 17.4083 161.782 17.3696 161.782 17.3696C161.782 17.3696 161.491 17.1695 161.114 16.9559C160.732 16.7306 160.268 16.4889 159.889 16.4338C159.531 16.369 158.664 16.4009 157.957 16.4077C157.603 16.4241 157.289 16.4222 157.096 16.4425C156.903 16.4609 156.831 16.4937 156.962 16.5382C157.229 16.6301 157.447 16.7538 157.635 16.8901C157.823 17.0216 157.982 17.1608 158.13 17.2962C158.426 17.564 158.684 17.8143 159.059 17.8617H159.058ZM155.724 18.9832C156.096 18.9638 156.768 18.7772 157.325 18.5443C157.605 18.4321 157.865 18.3296 158.046 18.2368C158.229 18.1469 158.344 18.0899 158.344 18.0899C158.344 18.0899 158.027 17.9352 157.623 17.7805C157.213 17.6142 156.717 17.445 156.335 17.447C155.971 17.4373 155.118 17.5978 154.42 17.709C154.073 17.7776 153.761 17.8221 153.574 17.8724C153.385 17.9197 153.319 17.9623 153.455 17.9874C153.732 18.0386 153.965 18.1285 154.172 18.2339C154.378 18.3354 154.555 18.4495 154.722 18.5617C155.055 18.7821 155.346 18.9919 155.724 18.9822V18.9832ZM152.446 20.5184C152.813 20.4536 153.458 20.1868 153.983 19.8881C154.247 19.7421 154.493 19.6096 154.661 19.4946C154.832 19.3834 154.939 19.3128 154.939 19.3128C154.939 19.3128 154.606 19.1978 154.186 19.0934C153.758 18.9783 153.245 18.8701 152.867 18.9194C152.505 18.9532 151.678 19.2171 150.997 19.4124C150.661 19.5236 150.357 19.6058 150.177 19.6773C149.996 19.7479 149.935 19.7972 150.074 19.8059C150.355 19.8233 150.598 19.8842 150.815 19.9644C151.032 20.0398 151.221 20.1317 151.4 20.2235C151.757 20.4024 152.073 20.5745 152.446 20.5194V20.5184ZM155.1 19.5806C155.1 19.5806 154.987 19.6444 154.808 19.745C154.632 19.8523 154.38 19.978 154.116 20.1298C153.59 20.4401 152.971 20.7669 152.691 21.0347C152.406 21.2928 152.316 21.6321 152.19 22.0314C152.126 22.2296 152.053 22.4442 151.937 22.6608C151.82 22.8734 151.66 23.0939 151.428 23.3133C151.313 23.4226 151.402 23.4129 151.612 23.3288C151.821 23.2428 152.154 23.091 152.503 22.8812C153.217 22.4858 154.013 21.9076 154.284 21.6215C154.569 21.3034 154.784 20.793 154.919 20.3676C155.048 19.9316 155.101 19.5806 155.101 19.5806H155.1ZM149.242 22.7246C149.174 22.7023 148.86 22.6144 148.432 22.6492C148.007 22.6917 147.455 22.8261 146.883 23.2853C146.628 23.4719 146.139 23.9949 145.646 24.4773C145.406 24.7296 145.162 24.9626 144.967 25.1628C144.779 25.359 144.636 25.5224 144.583 25.6162L144.608 25.6278C144.719 25.6394 144.922 25.6249 145.18 25.592C145.462 25.5572 145.81 25.5002 146.157 25.4083C146.862 25.2488 147.576 24.9839 147.88 24.8273C148.567 24.4386 148.926 23.9495 149.086 23.5299C149.251 23.1151 149.245 22.7942 149.242 22.7236V22.7246ZM149.504 22.1832C149.866 22.0904 150.488 21.7733 150.987 21.4349C151.24 21.2686 151.474 21.1178 151.633 20.9902C151.795 20.8655 151.896 20.7872 151.896 20.7872C151.896 20.7872 151.555 20.6982 151.128 20.6276C150.693 20.5464 150.173 20.4788 149.8 20.5571C149.442 20.6199 148.637 20.9467 147.974 21.1951C147.648 21.3324 147.351 21.4378 147.177 21.5229C147.002 21.607 146.944 21.6621 147.084 21.6592C147.366 21.6544 147.612 21.6959 147.835 21.7588C148.057 21.8177 148.253 21.8941 148.439 21.9705C148.808 22.1213 149.137 22.2683 149.503 22.1832H149.504ZM152.078 21.0405C152.078 21.0405 151.97 21.113 151.8 21.228C151.632 21.3479 151.391 21.4939 151.139 21.665C150.639 22.015 150.047 22.3901 149.788 22.6782C149.525 22.9585 149.461 23.3037 149.366 23.7116C149.318 23.9137 149.262 24.1332 149.163 24.3584C149.062 24.5798 148.92 24.8118 148.705 25.0496C148.599 25.1676 148.687 25.1512 148.889 25.0506C149.09 24.9481 149.411 24.7712 149.743 24.5344C150.423 24.0848 151.172 23.4458 151.421 23.1393C151.68 22.8 151.856 22.2741 151.957 21.84C152.052 21.3953 152.077 21.0414 152.077 21.0414L152.078 21.0405ZM139.774 30.9875C139.748 30.9208 139.619 30.6202 139.322 30.3089C139.022 30.0043 138.57 29.6582 137.854 29.5016C137.549 29.4214 136.836 29.3692 136.153 29.288C135.806 29.2599 135.472 29.2174 135.195 29.1913C134.925 29.1681 134.709 29.1594 134.602 29.1778L134.609 29.2048C134.67 29.2986 134.809 29.4475 134.997 29.6273C135.202 29.8255 135.466 30.0614 135.754 30.2731C136.321 30.7227 136.977 31.1123 137.289 31.2505C138.022 31.5415 138.626 31.5125 139.052 31.3723C139.477 31.2408 139.722 31.033 139.774 30.9866V30.9875ZM140.064 30.7613C140.395 30.9373 141.065 31.1248 141.662 31.2138C141.96 31.2621 142.235 31.3095 142.438 31.323C142.641 31.3404 142.768 31.3511 142.768 31.3511C142.768 31.3511 142.575 31.0552 142.308 30.713C142.04 30.3582 141.704 29.957 141.375 29.7617C141.068 29.5645 140.255 29.2619 139.599 28.996C139.266 28.8761 138.976 28.7533 138.79 28.6982C138.604 28.6422 138.525 28.6431 138.629 28.7359C138.84 28.9225 138.995 29.1207 139.117 29.3179C139.242 29.5113 139.335 29.7008 139.421 29.8835C139.593 30.2451 139.735 30.5757 140.063 30.7623L140.064 30.7613ZM142.731 31.6604C142.731 31.6604 142.603 31.6411 142.4 31.6101C142.196 31.586 141.92 31.5289 141.619 31.4854C141.014 31.4052 140.326 31.2814 139.941 31.3191C139.558 31.3472 139.28 31.5589 138.935 31.7958C138.764 31.9127 138.575 32.0365 138.351 32.1361C138.128 32.2308 137.868 32.3062 137.55 32.3362C137.393 32.3507 137.469 32.399 137.686 32.4619C137.904 32.5228 138.259 32.6088 138.663 32.6591C139.468 32.7877 140.449 32.8225 140.838 32.7654C141.258 32.691 141.74 32.4213 142.107 32.1689C142.475 31.904 142.732 31.6604 142.732 31.6604H142.731ZM141.518 29.373C141.998 29.6969 142.247 30.103 142.467 30.4539C142.686 30.8029 142.872 31.1142 143.229 31.2718C143.407 31.3549 143.675 31.4081 143.974 31.4545C144.274 31.499 144.605 31.5425 144.916 31.5492C145.226 31.5628 145.514 31.5686 145.723 31.5705C145.828 31.5734 145.913 31.5666 145.972 31.5647C146.032 31.5618 146.064 31.5608 146.064 31.5608C146.064 31.5608 145.832 31.2872 145.52 30.9547C145.205 30.6221 144.812 30.2702 144.455 30.0923C144.287 30.0111 143.986 29.9154 143.637 29.8226C143.291 29.7191 142.899 29.6089 142.544 29.5239C141.839 29.3257 141.28 29.2097 141.517 29.3721L141.518 29.373ZM146.063 31.8731C146.063 31.8731 145.531 31.8509 144.905 31.8248C144.591 31.8228 144.255 31.7977 143.948 31.7996C143.641 31.7987 143.363 31.819 143.169 31.848C142.781 31.9166 142.521 32.1757 142.196 32.4599C141.873 32.7422 141.488 33.0323 140.847 33.1792C140.527 33.2498 141.185 33.3378 142.018 33.3764C142.437 33.3813 142.897 33.3793 143.303 33.3552C143.709 33.3204 144.059 33.2749 144.255 33.2218C144.675 33.1135 145.139 32.7606 145.484 32.4609C145.831 32.1602 146.064 31.8731 146.064 31.8731H146.063ZM146.529 31.4158C146.926 31.5444 147.688 31.5386 148.347 31.5019C148.677 31.4729 148.981 31.439 149.202 31.4129C149.423 31.3888 149.561 31.3598 149.561 31.3598C149.561 31.3598 149.49 31.2959 149.374 31.1925C149.257 31.0862 149.092 30.9421 148.907 30.7913C148.532 30.4877 148.074 30.16 147.676 30.0169C147.489 29.9502 147.161 29.9019 146.783 29.8342C146.595 29.8004 146.394 29.7684 146.192 29.7394C145.991 29.7114 145.789 29.6853 145.597 29.6515C145.213 29.5896 144.871 29.5529 144.658 29.5384C144.446 29.52 144.362 29.5403 144.497 29.6157C145.587 30.1948 145.739 31.1828 146.53 31.4158H146.529ZM149.6 31.6691C149.6 31.6691 149.459 31.6856 149.233 31.6991C149.008 31.7146 148.701 31.7387 148.368 31.7735C147.703 31.8219 146.937 31.8982 146.535 32.0123C145.73 32.2627 145.559 33.244 144.234 33.7013C144.069 33.7535 144.163 33.7873 144.409 33.8047C144.655 33.8182 145.056 33.7989 145.5 33.7689C145.723 33.7573 145.957 33.7274 146.189 33.6945C146.42 33.6626 146.649 33.6268 146.863 33.5901C147.291 33.5166 147.656 33.4083 147.858 33.33C148.291 33.1608 148.738 32.7355 149.064 32.3662C149.227 32.1815 149.361 32.0085 149.454 31.8828C149.548 31.7542 149.6 31.6701 149.6 31.6701V31.6691ZM147.753 29.6234C148.04 29.7443 148.272 29.8825 148.473 30.0324C148.672 30.1832 148.839 30.3485 148.996 30.5051C149.311 30.8232 149.581 31.092 149.988 31.1558C150.192 31.1838 150.485 31.1964 150.805 31.1558C151.125 31.12 151.476 31.0649 151.801 31.004C152.122 30.9286 152.419 30.8522 152.633 30.7942C152.741 30.7652 152.829 30.741 152.889 30.7246C152.95 30.7081 152.983 30.6956 152.983 30.6956C152.983 30.6956 152.903 30.6405 152.773 30.5525C152.642 30.4645 152.46 30.3446 152.255 30.2209C152.05 30.0972 151.823 29.9686 151.597 29.8642C151.37 29.7549 151.141 29.6582 150.937 29.6205C150.554 29.5548 149.612 29.5442 148.842 29.5239C148.072 29.5152 147.467 29.5074 147.751 29.6254L147.753 29.6234ZM153.065 30.9953C153.065 30.9953 153.031 31.0049 152.968 31.0175C152.906 31.031 152.816 31.0494 152.705 31.0726C152.485 31.12 152.184 31.1877 151.859 31.2689C151.532 31.3356 151.182 31.411 150.865 31.497C150.55 31.586 150.263 31.6527 150.072 31.7445C149.689 31.9214 149.485 32.2627 149.218 32.6262C149.086 32.8109 148.937 33.0052 148.744 33.1937C148.551 33.3842 148.31 33.5669 147.993 33.71C147.678 33.854 148.385 33.8086 149.264 33.6181C150.143 33.4393 151.18 33.1048 151.557 32.8766C151.76 32.7577 151.962 32.5885 152.145 32.3894C152.327 32.1854 152.492 31.963 152.628 31.7561C152.765 31.5492 152.875 31.3598 152.95 31.2215C153.025 31.0842 153.065 30.9943 153.065 30.9943V30.9953ZM150.864 29.2377C151.461 29.3991 151.853 29.6805 152.204 29.9483C152.555 30.2141 152.863 30.4607 153.273 30.4616C153.686 30.4742 154.423 30.276 155.041 30.044C155.348 29.9222 155.634 29.8139 155.834 29.7153C156.035 29.6167 156.161 29.5548 156.161 29.5548C156.161 29.5548 156.074 29.5142 155.932 29.4484C155.789 29.3827 155.596 29.3034 155.373 29.2087C155.152 29.1149 154.908 29.0202 154.669 28.9467C154.55 28.91 154.433 28.881 154.319 28.8568C154.203 28.8297 154.092 28.8123 153.988 28.8075C153.891 28.8026 153.761 28.8075 153.609 28.82C153.458 28.8355 153.283 28.852 153.095 28.8674C152.908 28.8858 152.709 28.909 152.512 28.9351C152.313 28.9554 152.112 28.9767 151.922 28.996C151.732 29.0182 151.554 29.0414 151.398 29.0656C151.241 29.0849 151.103 29.1004 151 29.1197C150.793 29.1574 150.717 29.199 150.865 29.2367L150.864 29.2377ZM156.288 29.839C156.288 29.839 156.156 29.8932 155.947 29.9802C155.739 30.0701 155.447 30.1706 155.138 30.2982C154.515 30.5438 153.794 30.8116 153.437 31.0349C153.083 31.2708 152.922 31.6179 152.707 32.022C152.492 32.4242 152.222 32.8882 151.627 33.2595C151.478 33.3542 151.578 33.3619 151.824 33.3136C151.946 33.2885 152.105 33.2527 152.287 33.2005C152.468 33.1434 152.671 33.0748 152.885 32.9994C153.097 32.923 153.321 32.8437 153.54 32.7529C153.757 32.6572 153.973 32.5595 154.172 32.4648C154.372 32.372 154.554 32.2763 154.707 32.1825C154.861 32.0906 154.987 32.0085 155.075 31.9398C155.168 31.8673 155.259 31.7803 155.346 31.6846C155.431 31.5869 155.512 31.4758 155.588 31.3627C155.74 31.1355 155.871 30.8918 155.977 30.6695C156.083 30.4481 156.157 30.2325 156.209 30.0827C156.26 29.9309 156.287 29.8381 156.287 29.8381L156.288 29.839ZM153.954 28.4092C154.259 28.4498 154.511 28.5078 154.744 28.6025C154.976 28.6924 155.183 28.8055 155.376 28.9109C155.759 29.112 156.099 29.2947 156.51 29.2416C156.712 29.2087 156.985 29.1101 157.282 28.9854C157.58 28.8616 157.885 28.6799 158.173 28.5184C158.458 28.3512 158.705 28.1704 158.888 28.0457C159.073 27.9219 159.18 27.8301 159.18 27.8301C159.18 27.8301 159.088 27.8078 158.937 27.7711C158.783 27.7324 158.573 27.6822 158.34 27.6338C158.106 27.5835 157.857 27.5439 157.608 27.511C157.359 27.4762 157.12 27.4617 156.92 27.4898C156.546 27.5478 155.665 27.8088 154.947 28.0167C154.58 28.1085 154.263 28.2081 154.068 28.2777C153.871 28.3434 153.804 28.3937 153.954 28.4111V28.4092ZM159.36 28.0834C159.36 28.0834 159.244 28.1655 159.049 28.2835C158.856 28.4005 158.6 28.5764 158.314 28.7514C158.024 28.9187 157.725 29.1207 157.445 29.2909C157.165 29.462 156.922 29.6331 156.766 29.7791C156.449 30.0556 156.351 30.4365 156.203 30.8773C156.127 31.0929 156.039 31.3201 155.902 31.556C155.765 31.789 155.584 32.0442 155.313 32.2695C155.179 32.3836 155.279 32.3778 155.519 32.2937C155.757 32.2057 156.127 32.023 156.532 31.8132C157.339 31.3675 158.249 30.7246 158.542 30.3785C158.701 30.1967 158.838 29.9628 158.952 29.7162C159.065 29.4688 159.144 29.1942 159.207 28.9535C159.269 28.7108 159.308 28.4952 159.331 28.3396C159.354 28.1829 159.359 28.0834 159.359 28.0834H159.36Z" fill="#FFB90F"/>
<path d="M7.79984 61.265C6.08569 61.265 4.61407 60.9827 3.38308 60.4191C2.15208 59.8555 1.02407 58.9999 0 57.8523L3.01349 54.8544C3.68337 55.6259 4.42639 56.2243 5.24449 56.6497C6.06163 57.075 7.01254 57.2877 8.09532 57.2877C9.07993 57.2877 9.84316 57.1098 10.385 56.7531C10.9269 56.3973 11.1974 55.9024 11.1974 55.2691C11.1974 54.6949 11.0203 54.2298 10.6661 53.8741C10.3119 53.5183 9.84316 53.2109 9.26279 52.9537C8.68146 52.6965 8.04142 52.449 7.34171 52.2122C6.64296 51.9744 5.94805 51.7027 5.25893 51.3962C4.5698 51.0898 3.93457 50.704 3.35324 50.239C2.77191 49.774 2.30415 49.1901 1.94996 48.4882C1.59577 47.7863 1.41868 46.9008 1.41868 45.8315C1.41868 44.5457 1.72859 43.4378 2.34939 42.5078C2.97018 41.5777 3.83159 40.871 4.93457 40.3857C6.03756 39.9013 7.30802 39.6587 8.74595 39.6587C10.2031 39.6587 11.5381 39.9159 12.7498 40.4302C13.9616 40.9445 14.9606 41.6473 15.7489 42.5377L12.7354 45.5357C12.105 44.8831 11.4697 44.3978 10.8297 44.0817C10.1897 43.7655 9.46587 43.607 8.65836 43.607C7.85085 43.607 7.21081 43.7597 6.73728 44.0672C6.26471 44.3736 6.02794 44.8145 6.02794 45.3878C6.02794 45.9214 6.20503 46.3526 6.55922 46.6784C6.91341 47.0052 7.38213 47.2865 7.9625 47.5243C8.54383 47.7622 9.18387 47.999 9.88262 48.2368C10.5814 48.4747 11.2763 48.7512 11.9654 49.0683C12.6545 49.3844 13.2898 49.7856 13.8711 50.27C14.4524 50.7543 14.9202 51.3682 15.2744 52.1097C15.6286 52.8512 15.8057 53.7668 15.8057 54.8553C15.8057 56.8537 15.0963 58.4218 13.6786 59.5596C12.2599 60.6975 10.3003 61.266 7.79888 61.266L7.79984 61.265ZM21.0963 60.9383L29.3697 39.9855H33.5651L41.7499 60.9383H36.8452L30.5815 43.5461H32.2658L25.9135 60.9383H21.0973H21.0963ZM25.7941 57.1398V53.3404H37.1696V57.1398H25.7941ZM48.4564 60.9383V39.9855H51.7654L59.9791 52.8367H58.2948L66.4796 39.9855H69.8184V60.9383H65.1793V47.8501L66.007 48.058L60.6596 56.4273H57.5864L52.2678 48.058L53.0657 47.8501V60.9383H48.4564ZM81.8444 60.9383V57.3177H86.7492C87.6549 57.3177 88.3642 57.0509 88.8762 56.5163C89.3883 55.9826 89.6443 55.3291 89.6443 54.5576C89.6443 54.0239 89.5259 53.5483 89.2901 53.1335C89.0533 52.7178 88.7242 52.392 88.3007 52.1542C87.8772 51.9164 87.3604 51.7984 86.7492 51.7984H81.8444V48.2668H86.3652C87.1332 48.2668 87.754 48.0735 88.2266 47.6877C88.6991 47.302 88.9359 46.7132 88.9359 45.9214C88.9359 45.1499 88.6991 44.5708 88.2266 44.1851C87.754 43.7994 87.1332 43.606 86.3652 43.606H81.8444V39.9855H87.2516C88.5913 39.9855 89.729 40.233 90.6645 40.727C91.6 41.222 92.3142 41.8842 92.807 42.7156C93.2988 43.547 93.5452 44.4664 93.5452 45.4757C93.5452 46.7615 93.1313 47.8501 92.3046 48.7405C91.4768 49.6309 90.2555 50.2439 88.6404 50.5803L88.7588 49.0074C90.5124 49.3438 91.8666 50.0263 92.8214 51.055C93.7771 52.0836 94.2545 53.3501 94.2545 54.8544C94.2545 56.0019 93.9735 57.0354 93.4124 57.9558C92.8512 58.8761 92.0428 59.6031 90.9898 60.1368C89.9359 60.6705 88.6703 60.9383 87.1929 60.9383H81.8454H81.8444ZM78.2987 60.9383V39.9855H82.8781V60.9383H78.2987ZM101.729 60.9383V39.9855H106.368V60.9383H101.729ZM114.641 60.9383V39.9855H119.309V60.9383H114.641ZM104.506 52.1832V48.1469H116.177V52.1832H104.506ZM126.223 60.9383L134.496 39.9855H138.692L146.877 60.9383H141.972L135.708 43.5461H137.392L131.04 60.9383H126.224H126.223ZM130.921 57.1398V53.3404H142.296V57.1398H130.921ZM157.66 60.9383L149.623 39.9855H154.587L160.703 56.932H158.665L164.87 39.9855H169.775L161.649 60.9383H157.661H157.66Z" fill="#F9F9F9"/>
<path d="M33.3928 83.231C32.6142 83.231 31.8914 83.084 31.2253 82.7891C30.5583 82.4943 29.9751 82.0873 29.4736 81.5681C28.9722 81.049 28.5805 80.4428 28.2975 79.7525C28.0145 79.0613 27.874 78.3198 27.874 77.527C27.874 76.7236 28.0126 75.9792 28.2898 75.2938C28.567 74.6083 28.9568 74.008 29.4582 73.4936C29.9597 72.9793 30.541 72.5781 31.2022 72.2881C31.8635 71.999 32.5834 71.854 33.362 71.854C34.1407 71.854 34.8635 71.999 35.5295 72.2881C36.1965 72.5771 36.7797 72.9793 37.2812 73.4936C37.7826 74.008 38.1715 74.6103 38.4496 75.3015C38.7268 75.9927 38.8654 76.7401 38.8654 77.5434C38.8654 78.3362 38.7268 79.0787 38.4496 79.7689C38.1724 80.4602 37.7855 81.0625 37.2899 81.5768C36.7942 82.0911 36.2148 82.4952 35.5545 82.7901C34.8933 83.085 34.1734 83.2319 33.3947 83.2319L33.3928 83.231ZM33.3611 82.0902C34.1926 82.0902 34.9318 81.892 35.5767 81.4956C36.2225 81.0992 36.7287 80.5578 37.0964 79.8724C37.4641 79.187 37.6489 78.4048 37.6489 77.526C37.6489 76.8725 37.542 76.2702 37.3293 75.7182C37.1156 75.1662 36.8173 74.6847 36.4333 74.2719C36.0492 73.8591 35.5988 73.541 35.081 73.3158C34.5641 73.0905 33.9905 72.9784 33.3611 72.9784C32.5401 72.9784 31.8067 73.1736 31.1609 73.5652C30.515 73.9558 30.0088 74.4942 29.6411 75.1807C29.2735 75.8661 29.0896 76.6482 29.0896 77.527C29.0896 78.1805 29.1965 78.7857 29.4092 79.3426C29.6228 79.8995 29.9212 80.3848 30.3052 80.7966C30.6892 81.2094 31.1426 81.5275 31.6652 81.7528C32.1878 81.978 32.7528 82.0902 33.3611 82.0902ZM49.1917 83.0705L44.8077 72.0145H46.0878L49.8789 81.7692H49.415L53.2389 72.0145H54.4863L50.0705 83.0705H49.1908H49.1917ZM61.647 83.0705V72.0145H62.8145V83.0705H61.647ZM62.4151 83.0705V81.9935H68.8944V83.0705H62.4151ZM62.4151 77.9282V76.8841H68.3824V77.9282H62.4151ZM62.4151 73.0915V72.0145H68.7982V73.0915H62.4151ZM76.9811 78.1216V77.1248H80.1803C80.906 77.1248 81.4604 76.9402 81.8444 76.5699C82.2285 76.2006 82.42 75.7046 82.42 75.083C82.42 74.4826 82.2285 73.9925 81.8444 73.6126C81.4604 73.2326 80.906 73.0422 80.1803 73.0422H76.9811V72.0135H80.1803C80.8955 72.0135 81.5085 72.145 82.0206 72.407C82.5326 72.669 82.9243 73.0315 83.1967 73.4917C83.4681 73.9529 83.6048 74.4778 83.6048 75.0666C83.6048 75.6776 83.4691 76.2132 83.1967 76.6733C82.9243 77.1335 82.5326 77.4903 82.0206 77.7416C81.5085 77.993 80.8955 78.1196 80.1803 78.1196H76.9811V78.1216ZM76.2294 83.0714V72.0155H77.3969V83.0714H76.2294ZM82.8849 83.0714L78.7568 77.9611L79.8926 77.5918L84.3882 83.0714H82.8849ZM93.9802 83.2319C93.1275 83.2319 92.3912 83.0685 91.7723 82.7418C91.1534 82.415 90.6096 81.9567 90.14 81.368L90.9561 80.5646C91.3296 81.0896 91.7636 81.4801 92.2603 81.7373C92.756 81.9945 93.3459 82.123 94.0283 82.123C94.7329 82.123 95.3026 81.9625 95.7406 81.6406C96.1775 81.3196 96.397 80.8749 96.397 80.3065C96.397 79.8676 96.2959 79.506 96.0928 79.2218C95.8897 78.9375 95.626 78.7074 95.3007 78.5305C94.9754 78.3536 94.6154 78.196 94.2208 78.0568C93.8262 77.9176 93.4345 77.7706 93.0447 77.615C92.6559 77.4593 92.2959 77.264 91.9648 77.0282C91.6347 76.7923 91.37 76.4926 91.1727 76.1281C90.9754 75.7636 90.8772 75.2976 90.8772 74.7301C90.8772 74.1298 91.0216 73.6164 91.3094 73.1872C91.5971 72.7589 91.9917 72.4292 92.4932 72.1991C92.9946 71.9691 93.5654 71.854 94.2054 71.854C94.9205 71.854 95.5577 71.9932 96.1169 72.2716C96.677 72.5501 97.1438 72.9252 97.5163 73.397L96.7165 74.2004C96.3748 73.7933 96.0014 73.482 95.5962 73.2684C95.191 73.0538 94.7165 72.9474 94.1727 72.9474C93.5327 72.9474 93.0206 73.0973 92.6366 73.397C92.2526 73.6967 92.0611 74.1153 92.0611 74.6509C92.0611 75.0685 92.1592 75.4059 92.3565 75.6631C92.5538 75.9202 92.8175 76.1349 93.1486 76.306C93.4788 76.4771 93.8397 76.6298 94.2285 76.7642C94.6174 76.8986 95.01 77.0456 95.4047 77.206C95.7993 77.3665 96.1592 77.5705 96.4846 77.817C96.8099 78.0636 97.0736 78.3768 97.2767 78.7567C97.4797 79.1367 97.5808 79.622 97.5808 80.2108C97.5808 81.164 97.2584 81.9065 96.6126 82.4363C95.9677 82.967 95.0899 83.2319 93.9812 83.2319H93.9802ZM104.963 83.0714V72.0155H106.13V83.0714H104.963ZM105.731 83.0714V81.9944H112.21V83.0714H105.731ZM105.731 77.9292V76.8851H111.698V77.9292H105.731ZM105.731 73.0924V72.0155H112.114V73.0924H105.731ZM118.73 83.0714L123.242 72.0155H124.122L128.586 83.0714H127.322L123.435 73.3013H123.899L119.979 83.0714H118.731H118.73ZM120.794 80.1953V79.1512H126.553V80.1953H120.794ZM138.304 83.2329C137.451 83.2329 136.715 83.0695 136.096 82.7427C135.477 82.416 134.933 81.9577 134.464 81.369L135.28 80.5656C135.653 81.0905 136.087 81.4811 136.584 81.7383C137.08 81.9954 137.67 82.124 138.352 82.124C139.056 82.124 139.626 81.9635 140.064 81.6416C140.501 81.3206 140.721 80.8759 140.721 80.3074C140.721 79.8685 140.62 79.507 140.416 79.2227C140.213 78.9385 139.95 78.7084 139.624 78.5315C139.299 78.3546 138.939 78.197 138.544 78.0578C138.15 77.9185 137.758 77.7716 137.368 77.6159C136.979 77.4603 136.619 77.265 136.288 77.0291C135.958 76.7932 135.694 76.4935 135.496 76.1291C135.299 75.7646 135.201 75.2986 135.201 74.7311C135.201 74.1307 135.345 73.6174 135.633 73.1881C135.921 72.7599 136.315 72.4302 136.817 72.2001C137.318 71.97 137.889 71.855 138.529 71.855C139.244 71.855 139.881 71.9942 140.44 72.2726C141.001 72.551 141.467 72.9261 141.84 73.3979L141.04 74.2013C140.698 73.7943 140.325 73.483 139.92 73.2694C139.515 73.0547 139.04 72.9484 138.496 72.9484C137.856 72.9484 137.344 73.0982 136.96 73.3979C136.576 73.6976 136.385 74.1162 136.385 74.6518C136.385 75.0695 136.483 75.4069 136.68 75.664C136.877 75.9212 137.141 76.1358 137.472 76.3069C137.802 76.4781 138.163 76.6308 138.552 76.7652C138.941 76.8996 139.334 77.0465 139.728 77.207C140.123 77.3675 140.483 77.5715 140.808 77.818C141.133 78.0645 141.397 78.3778 141.6 78.7577C141.803 79.1376 141.904 79.623 141.904 80.2117C141.904 81.165 141.582 81.9074 140.936 82.4372C140.291 82.968 139.414 83.2329 138.305 83.2329H138.304Z" fill="#FFB90F"/>
<path d="M148.88 77.9348C148.88 77.9348 150.735 77.8701 151.148 78.1098C151.561 78.3496 152.056 79.5387 152.056 79.5387C152.056 79.5387 150.386 79.7321 149.835 79.3821C149.284 79.0321 148.88 77.9339 148.88 77.9339V77.9348ZM151.94 77.9348C151.94 77.9348 153.795 77.8701 154.207 78.1098C154.62 78.3496 155.116 79.5387 155.116 79.5387C155.116 79.5387 153.445 79.7321 152.895 79.3821C152.344 79.0321 151.94 77.9339 151.94 77.9339V77.9348ZM154.584 77.5559C154.584 77.1498 155.906 76.4866 156.255 76.5234C156.603 76.5601 158.164 77.2243 158.164 77.5742C158.164 77.9242 156.402 78.57 156.089 78.57C155.777 78.57 154.584 77.8324 154.584 77.5559ZM151.94 77.1498C151.94 77.1498 153.795 77.2146 154.207 76.9748C154.62 76.7351 155.116 75.546 155.116 75.546C155.116 75.546 153.445 75.3526 152.895 75.7026C152.344 76.0525 151.94 77.1508 151.94 77.1508V77.1498ZM147.085 77.5375C147.085 77.2243 154.331 77.3519 154.331 77.5375C154.331 77.7231 147.085 77.873 147.085 77.5375ZM148.88 77.1498C148.88 77.1498 150.735 77.2146 151.148 76.9748C151.561 76.7351 152.056 75.546 152.056 75.546C152.056 75.546 150.386 75.3526 149.835 75.7026C149.284 76.0525 148.88 77.1508 148.88 77.1508V77.1498Z" fill="#FFB90F"/>
<path d="M22.6891 77.5375C22.6891 77.2243 15.4436 77.3519 15.4436 77.5375C15.4436 77.7231 22.6891 77.873 22.6891 77.5375ZM15.1905 77.5559C15.1905 77.1498 13.8681 76.4866 13.5196 76.5234C13.1712 76.5601 11.6101 77.2243 11.6101 77.5742C11.6101 77.9242 13.3724 78.57 13.6852 78.57C13.997 78.57 15.1905 77.8324 15.1905 77.5559ZM17.8344 77.9348C17.8344 77.9348 15.9797 77.8701 15.5668 78.1098C15.1539 78.3496 14.6582 79.5387 14.6582 79.5387C14.6582 79.5387 16.3291 79.7321 16.8796 79.3821C17.4302 79.0321 17.8344 77.9339 17.8344 77.9339V77.9348ZM20.8941 77.9348C20.8941 77.9348 19.0394 77.8701 18.6265 78.1098C18.2136 78.3496 17.7179 79.5387 17.7179 79.5387C17.7179 79.5387 19.3888 79.7321 19.9393 79.3821C20.4898 79.0321 20.8941 77.9339 20.8941 77.9339V77.9348ZM17.8344 77.1508C17.8344 77.1508 15.9797 77.2156 15.5668 76.9758C15.1539 76.7361 14.6582 75.5469 14.6582 75.5469C14.6582 75.5469 16.3291 75.3536 16.8796 75.7035C17.4302 76.0535 17.8344 77.1518 17.8344 77.1518V77.1508ZM20.8941 77.1508C20.8941 77.1508 19.0394 77.2156 18.6265 76.9758C18.2136 76.7361 17.7179 75.5469 17.7179 75.5469C17.7179 75.5469 19.3888 75.3536 19.9393 75.7035C20.4898 76.0535 20.8941 77.1518 20.8941 77.1518V77.1508Z" fill="#FFB90F"/>
</svg>
