<svg width="22" height="27" viewBox="0 0 22 27" fill="none" xmlns="http://www.w3.org/2000/svg">
<path opacity="0.1" d="M0.431295 9.2775C1.22757 5.35196 3.87812 2.28686 7.27275 1.36606C9.72431 0.701061 12.2757 0.70106 14.7273 1.36606C18.1219 2.28686 20.7724 5.35196 21.5687 9.27751C22.1438 12.1125 22.1438 15.0629 21.5687 17.8979C20.7724 21.8234 18.1219 24.8885 14.7272 25.8093C12.2757 26.4743 9.72431 26.4743 7.27275 25.8093C3.87812 24.8885 1.22757 21.8234 0.431295 17.8979C-0.143765 15.0629 -0.143765 12.1125 0.431295 9.2775Z" fill="#FF601B"/>
<path d="M7.5673 13.322C7.29636 13.0087 6.82273 12.9744 6.50942 13.2453C6.19611 13.5162 6.16176 13.9899 6.4327 14.3032L7.5673 13.322ZM9.44444 16.6394L8.87714 17.1299C9.0196 17.2947 9.22665 17.3894 9.44445 17.3894C9.66225 17.3894 9.86929 17.2947 10.0117 17.1299L9.44444 16.6394ZM15.6506 10.6091C15.9216 10.2958 15.8872 9.82216 15.5739 9.55123C15.2606 9.28029 14.787 9.31464 14.516 9.62795L15.6506 10.6091ZM6.4327 14.3032L8.87714 17.1299L10.0117 16.1488L7.5673 13.322L6.4327 14.3032ZM10.0117 17.1299L15.6506 10.6091L14.516 9.62795L8.87714 16.1488L10.0117 17.1299Z" fill="#FF601B"/>
</svg>
